<mxfile host="app.diagrams.net" agent="Mozilla/5.0 (Macintosh; Intel Mac OS X 10_15_7) AppleWebKit/537.36 (KHTML, like Gecko) Chrome/128.0.0.0 Safari/537.36 Edg/128.0.0.0" version="24.7.12" pages="2">
  <diagram name="LSP" id="PJiSB53MlFs6jTGXpBSp">
    <mxGraphModel dx="1689" dy="457" grid="1" gridSize="10" guides="1" tooltips="1" connect="1" arrows="1" fold="1" page="1" pageScale="1" pageWidth="827" pageHeight="1169" math="0" shadow="0">
      <root>
        <mxCell id="0" />
        <mxCell id="1" parent="0" />
        <mxCell id="ltdOZ-bSlB5xBiouU9c6-1" value="" style="rounded=0;whiteSpace=wrap;html=1;" vertex="1" parent="1">
          <mxGeometry x="100" y="370" width="110" height="70" as="geometry" />
        </mxCell>
        <mxCell id="ltdOZ-bSlB5xBiouU9c6-4" value="" style="endArrow=classic;html=1;rounded=0;" edge="1" parent="1">
          <mxGeometry width="50" height="50" relative="1" as="geometry">
            <mxPoint x="155" y="390" as="sourcePoint" />
            <mxPoint x="155" y="420" as="targetPoint" />
          </mxGeometry>
        </mxCell>
        <mxCell id="ltdOZ-bSlB5xBiouU9c6-5" value="Input" style="text;html=1;align=center;verticalAlign=middle;resizable=0;points=[];autosize=1;strokeColor=none;fillColor=none;" vertex="1" parent="1">
          <mxGeometry x="130" y="370" width="50" height="30" as="geometry" />
        </mxCell>
        <mxCell id="ltdOZ-bSlB5xBiouU9c6-6" value="Output" style="text;html=1;align=center;verticalAlign=middle;resizable=0;points=[];autosize=1;strokeColor=none;fillColor=none;" vertex="1" parent="1">
          <mxGeometry x="125" y="410" width="60" height="30" as="geometry" />
        </mxCell>
        <mxCell id="ltdOZ-bSlB5xBiouU9c6-8" value="" style="shape=trapezoid;perimeter=trapezoidPerimeter;whiteSpace=wrap;html=1;fixedSize=1;size=50;" vertex="1" parent="1">
          <mxGeometry x="-15" y="530" width="140" height="70" as="geometry" />
        </mxCell>
        <mxCell id="ltdOZ-bSlB5xBiouU9c6-9" value="" style="rounded=0;whiteSpace=wrap;html=1;fillColor=none;dashed=1;strokeColor=#7EA6E0;" vertex="1" parent="1">
          <mxGeometry y="530" width="110" height="70" as="geometry" />
        </mxCell>
        <mxCell id="ltdOZ-bSlB5xBiouU9c6-10" value="" style="shape=trapezoid;perimeter=trapezoidPerimeter;whiteSpace=wrap;html=1;fixedSize=1;size=50;flipH=0;flipV=1;" vertex="1" parent="1">
          <mxGeometry x="185" y="530" width="140" height="70" as="geometry" />
        </mxCell>
        <mxCell id="ltdOZ-bSlB5xBiouU9c6-11" value="" style="rounded=0;whiteSpace=wrap;html=1;fillColor=none;dashed=1;strokeColor=#7EA6E0;flipH=0;flipV=1;" vertex="1" parent="1">
          <mxGeometry x="200" y="530" width="110" height="70" as="geometry" />
        </mxCell>
        <mxCell id="ltdOZ-bSlB5xBiouU9c6-12" value="Input" style="text;html=1;align=center;verticalAlign=middle;resizable=0;points=[];autosize=1;strokeColor=none;fillColor=none;" vertex="1" parent="1">
          <mxGeometry x="30" y="530" width="50" height="30" as="geometry" />
        </mxCell>
        <mxCell id="ltdOZ-bSlB5xBiouU9c6-13" value="Output" style="text;html=1;align=center;verticalAlign=middle;resizable=0;points=[];autosize=1;strokeColor=none;fillColor=none;" vertex="1" parent="1">
          <mxGeometry x="25" y="570" width="60" height="30" as="geometry" />
        </mxCell>
        <mxCell id="ltdOZ-bSlB5xBiouU9c6-14" value="Input" style="text;html=1;align=center;verticalAlign=middle;resizable=0;points=[];autosize=1;strokeColor=none;fillColor=none;" vertex="1" parent="1">
          <mxGeometry x="230" y="530" width="50" height="30" as="geometry" />
        </mxCell>
        <mxCell id="ltdOZ-bSlB5xBiouU9c6-15" value="Output" style="text;html=1;align=center;verticalAlign=middle;resizable=0;points=[];autosize=1;strokeColor=none;fillColor=none;" vertex="1" parent="1">
          <mxGeometry x="225" y="570" width="60" height="30" as="geometry" />
        </mxCell>
        <mxCell id="ltdOZ-bSlB5xBiouU9c6-18" value="" style="shape=curlyBracket;whiteSpace=wrap;html=1;rounded=1;labelPosition=left;verticalLabelPosition=middle;align=right;verticalAlign=middle;rotation=90;dashed=1;" vertex="1" parent="1">
          <mxGeometry x="145" y="310" width="20" height="110" as="geometry" />
        </mxCell>
        <mxCell id="ltdOZ-bSlB5xBiouU9c6-19" value="分别表示输入和输出&lt;div&gt;值的范围&lt;/div&gt;" style="text;html=1;align=center;verticalAlign=middle;resizable=0;points=[];autosize=1;strokeColor=none;fillColor=none;" vertex="1" parent="1">
          <mxGeometry x="270" y="390" width="130" height="40" as="geometry" />
        </mxCell>
        <mxCell id="ltdOZ-bSlB5xBiouU9c6-28" style="edgeStyle=orthogonalEdgeStyle;rounded=0;orthogonalLoop=1;jettySize=auto;html=1;" edge="1" parent="1">
          <mxGeometry relative="1" as="geometry">
            <mxPoint x="50" y="520" as="targetPoint" />
            <mxPoint x="155" y="470" as="sourcePoint" />
            <Array as="points">
              <mxPoint x="155" y="500" />
              <mxPoint x="50" y="500" />
            </Array>
          </mxGeometry>
        </mxCell>
        <mxCell id="ltdOZ-bSlB5xBiouU9c6-30" style="edgeStyle=orthogonalEdgeStyle;rounded=0;orthogonalLoop=1;jettySize=auto;html=1;" edge="1" parent="1">
          <mxGeometry relative="1" as="geometry">
            <mxPoint x="260" y="520" as="targetPoint" />
            <mxPoint x="155" y="470" as="sourcePoint" />
            <Array as="points">
              <mxPoint x="155" y="500" />
              <mxPoint x="260" y="500" />
            </Array>
          </mxGeometry>
        </mxCell>
        <mxCell id="ltdOZ-bSlB5xBiouU9c6-20" value="" style="shape=curlyBracket;whiteSpace=wrap;html=1;rounded=1;labelPosition=left;verticalLabelPosition=middle;align=right;verticalAlign=middle;rotation=-90;flipV=1;dashed=1;" vertex="1" parent="1">
          <mxGeometry x="145" y="390" width="20" height="110" as="geometry" />
        </mxCell>
        <mxCell id="ltdOZ-bSlB5xBiouU9c6-23" style="edgeStyle=orthogonalEdgeStyle;rounded=0;orthogonalLoop=1;jettySize=auto;html=1;exitX=0.5;exitY=1;exitDx=0;exitDy=0;entryX=-0.003;entryY=0.375;entryDx=0;entryDy=0;entryPerimeter=0;curved=1;" edge="1" parent="1" source="ltdOZ-bSlB5xBiouU9c6-20" target="ltdOZ-bSlB5xBiouU9c6-19">
          <mxGeometry relative="1" as="geometry" />
        </mxCell>
        <mxCell id="ltdOZ-bSlB5xBiouU9c6-24" style="edgeStyle=orthogonalEdgeStyle;rounded=0;orthogonalLoop=1;jettySize=auto;html=1;exitX=0.5;exitY=0;exitDx=0;exitDy=0;entryX=-0.005;entryY=0.375;entryDx=0;entryDy=0;entryPerimeter=0;curved=1;" edge="1" parent="1" source="ltdOZ-bSlB5xBiouU9c6-18" target="ltdOZ-bSlB5xBiouU9c6-19">
          <mxGeometry relative="1" as="geometry" />
        </mxCell>
        <mxCell id="ltdOZ-bSlB5xBiouU9c6-31" value="正确" style="text;html=1;align=center;verticalAlign=middle;resizable=0;points=[];autosize=1;strokeColor=none;fillColor=none;" vertex="1" parent="1">
          <mxGeometry x="190" y="478" width="50" height="30" as="geometry" />
        </mxCell>
        <mxCell id="ltdOZ-bSlB5xBiouU9c6-32" value="" style="shape=image;verticalLabelPosition=bottom;labelBackgroundColor=default;verticalAlign=top;aspect=fixed;imageAspect=0;image=data:image/png,iVBORw0KGgoAAAANSUhEUgAAAMgAAADICAYAAACtWK6eAAAAAXNSR0IArs4c6QAACk1JREFUeF7tnb1yHEUQgPdE4MCgDDuQI6rsgoSUEPlxbD+E1w+BeRwpJSXBZaqIrMAmu4LAATpq93zW+m5nf3pnprenPyVQ8s7f1/Nppkdzq03FFwQgECSwgQ0EIBAmgCDMDggMEEAQpgcEEIQ5AAEZAVYQGTdKOSGAIE4CzTBlBBBExo1STgggiJNAM0wZAQSRcaOUEwII4iTQDFNGAEFk3CjlhACCOAk0w5QRQBAZN0o5IYAgTgLNMGUEEETGjVJOCCCIk0AzTBkBBJFxo5QTAgjiJNAMU0YAQWTcKOWEAII4CTTDlBFAEBk3SjkhgCBOAs0wZQQQRMaNUk4IIIiTQDNMGQEEkXGjlBMCCOIk0AxTRgBBZNwo5YQAgjgJNMOUEUAQGTdKOSGAIE4CzTBlBBBExo1STgggiJNAM0wZAQSRcaOUEwII4iTQDFNGAEFk3CjlhACCOAk0w5QRQBAZN0o5IYAgTgLNMGUEEETGjVJOCCCIk0AzTBkBBJFxo5QTAgjiJNAMU0YAQWTcKOWEAII4CTTDlBFAEBk3SjkhgCBOAs0wZQQQRMaNUk4IIIiTQDNMGQEEkXGjlBMCCOIk0AxTRgBBZNwo5YQAgjgJNMOUEUAQGTdKOSGAIE4CzTBlBBBExo1STgggiJNAxxhm/ev3l9Xt7WW12f1cVZvLfZ276/Y/m69e1c/e7P+/oC8EKSiYKYdS//KkrjbVy8E2dtWr+sXbOmU/cteNILmJG2yvfv346m7FGBvA7rp+/ufTsaes/DuCWImUQj/bLdXu9mp20wWtJAgyO/o+Coxtqb4+v9eC+Gf7sR9IIZIgiI/5PmuUQ3I8vDivHj46/1xfI8iHm+2pKAgyizkPGyEwR47ukH7/7d3JCOvnb83/ADY/ACPzzkQ3pXI0g/vrj79PVhEEMRF2OjmFwNBJ1fG2qq8+BJlCmWfMERg7qfruh2+rQ0IeGlyThzSCfPlVxnEvWyxzUzpeh4fkaKRo5Jjy9f7dtnp/s0WQKbB4xgaBoXxjuRzN1ZOzpyVcPWEFsTGfo/ZySTLe7Uj/1qp5ooztVTMSBIk69dZfGXLMixGCzONl+ulYcoSOdVs4hWytDoFGENNTfnrnlx7jdlvqT8qbnRW3eadHhCdXQSDGMa5XOchBVjGF03Ui1knVoYcekvLjaLDFSjc/VWuOmW80A/EoByuI6hRO13hsOTwl5awg6eblKmpGjrhhYIsVl6dqbTFPqg4D8XRi1Rc8BFGd0nEa359U/fcy9LnxKRcO+3riNe/oskCQOHNUrZaxC4cPLs5Hb+MiRzh8CKI2tZc3HPsYt9ujvs93tP9e2G/Kx6KAIGOEVvrvKZLxw1CR4y7o7gRpJ9bZWfsGQKvXsVPK4T0pd3nMO/wKm921pddmqshR0PX1uRuC4leQsfc7fQZm4KJdimPcw/g5sepXp2hB5r0yc723UWNfOOybCuQdzgSZvHIcc1nZSpLypIqkfHzDVeQKEvqJ23zW+v4396r7n16befomjk/AViJJynzjMDVIyoclKVOQnreRh15EENxaKEuCHOM/3XM8UZwgodVj6LrF2iTJIQdJ+TS9yhOkZ/WY8mbAvnfLtggzryQpT6r4Tfk0KbpPFSVIaPX48adHo2TCP1HzSTIkh/TCISdWo6EffKAsQYSrx/jvAtJKkuMYl6RcJkoxgixZPbrocq8kOY5xkUMmR1OqHEEWrh4akuRIxsdXx3LegijXIFyyCEH6Vo8575ftw5N6JckpRzO+4CGEs+vrcyUqQ5DXT3bHA4+R1KaSJLccXCOZq8Xd8+YFSbF6pNxu5TrGJe+QS1HUMW/fhIuxenQhBa9jzPg9Sc6TKuSII0cRSXp9tL1amnuE0C6RZOxz41P/UM2csPOb8jm0Ck3SU2+vjrENShJIdnMe43b7G0rKS/jDmnGm/rRaTOcgfYJMuVYyDU3/U3MkyZ2MH3pMUr4kwl+WNS1IM5TjLVbzvSlXS5YgnCKJlhxcX18S2dOyBQjy+Or4hWmpV5EG41hOUm2ql32hStk35IgrRxlJevOWkp7JmHIijp4SBeKUsk8k5fHlKEKQdpsVkCT2cW9fCAZXkk6B1H0hKUeQQQJ9uUiOfGRsu5Xq2LkLg6Q8jRzFrCDtKtK+wPn26hhVjgkakiTllmp0m5f5g17ppqhuzeaT9C6+0FYrx0Rt+tHkAR9utu2LIZqvh4/Ok0aXpDwp3rbyogQZykdySZI+ZPsWSMrzkC5OkFaSns+GtD/RL86T/1TPETbkyEF530aRguwlOb0C33w/9S8Rc4SOpDwH5dIFUU7aU4WQvCMV2f56i11BSsxHkCOvHEVvsQ4otU+2YoWUvCMWyXn1FL2ClCIJcsyb1DGfdiHIUNKe+gpIjGCRlMegKKvDjyBGk3byDtnEjlXKjSAWk3bkiDXN5fW4EsSSJOQd8kkds6Q7QSxIghwxp/iyulwKsk/aTz+J2Hx/DUk7SfmySR2ztF9BAkl7A1fzOgpyxJzey+tyK8gat1ok5csndOwaXAuyJknIO2JP7Tj1uRdkDZIgR5zJnKIWBPlEVTNpJ+9IMbXj1IkgHY4anyFBjjgTOVUtCNIVJPD6oFQvfiApTzWt49WLIEcsc12PD79Piz+JFm96L68JQXoYppaEpHz5xM1VA4IESKdM2sk7ck3v5e0gyADDFEk7ciyftDlrQJAhQSJ/hoSkPOfUjtMWgoxwjJWPIEecCZu7FgSZQHypJCTlEyCv9BEEmRiYJZKQd0yEvMLHEGRGUEJJ+9BnSJBjBuAVPoogM4Iy908skHfMgLvSRxFkZmBCW63mOsqDi7s/d/Dv9mP1/mZ7Wjt/t2Mmcd3HEUTAf+gv2A5XxzUSAW7VIggixC+SZHP2tH725lrYJMUUCCDIAuizJEGOBaT1iiLIQvajkpBzLCSsWxxBIvFvT7huby+71dUv3taRqqcaJQIIogSeZm0QQBAbcaKXSgQQRAk8zdoggCA24kQvlQggiBJ4mrVBAEFsxIleKhFAECXwNGuDAILYiBO9VCKAIErgadYGAQSxESd6qUQAQZTA06wNAghiI070UokAgiiBp1kbBBDERpzopRIBBFECT7M2CCCIjTjRSyUCCKIEnmZtEEAQG3Gil0oEEEQJPM3aIIAgNuJEL5UIIIgSeJq1QQBBbMSJXioRQBAl8DRrgwCC2IgTvVQigCBK4GnWBgEEsREneqlEAEGUwNOsDQIIYiNO9FKJAIIogadZGwQQxEac6KUSAQRRAk+zNgggiI040UslAgiiBJ5mbRBAEBtxopdKBBBECTzN2iCAIDbiRC+VCCCIEniatUEAQWzEiV4qEUAQJfA0a4MAgtiIE71UIoAgSuBp1gYBBLERJ3qpRABBlMDTrA0CCGIjTvRSiQCCKIGnWRsEEMRGnOilEgEEUQJPszYIIIiNONFLJQIIogSeZm0QQBAbcaKXSgQQRAk8zdoggCA24kQvlQggiBJ4mrVBAEFsxIleKhFAECXwNGuDwP+fbPYFixkDDQAAAABJRU5ErkJggg==;" vertex="1" parent="1">
          <mxGeometry x="180" y="483" width="20" height="20" as="geometry" />
        </mxCell>
        <mxCell id="ltdOZ-bSlB5xBiouU9c6-33" value="" style="shape=image;verticalLabelPosition=bottom;labelBackgroundColor=default;verticalAlign=top;aspect=fixed;imageAspect=0;image=data:image/png,iVBORw0KGgoAAAANSUhEUgAAAMgAAADICAYAAACtWK6eAAAAAXNSR0IArs4c6QAACcRJREFUeF7tnV1S20oQRuUkLqqoygKSBWQL8AhL8IqSrIglhPuGH7KBLCBZQJ4oCL41xjZCSNbos35G8x0/UYXacZ/u49aMhLIoeEEAAo0EFrCBAASaCSAI3QGBIwQQhPaAAILQAxDQCDBBNG5EmRBAEJNCk6ZGAEE0bkSZEEAQk0KTpkYAQTRuRJkQQBCTQpOmRgBBNG5EmRBAEJNCk6ZGAEE0bkSZEEAQk0KTpkYAQTRuRJkQQBCTQpOmRgBBNG5EmRBAEJNCk6ZGAEE0bkSZEEAQk0KTpkYAQTRuRJkQQBCTQpOmRgBBNG5EmRBAEJNCk6ZGAEE0bkSZEEAQk0KTpkYAQTRuRJkQQBCTQpOmRgBBNG5EmRBAEJNCk6ZGAEE0bkSZEEAQk0KTpkYAQTRuRJkQQBCTQpOmRgBBNG5EmRBAEJNCk6ZGAEE0bkSZEEAQk0KTpkYAQTRuRJkQQBCTQpOmRgBBNG5EmRBAEJNCk6ZGAEE0bkSZEEAQk0KTpkYAQSK53Vxeftseutl8LYXcbn9eLL6v7u6ef57hK+fcTi0HgrQQ3DbPaymaIm7nJkrOuZ0qxj4eQY6Q7NBAL++yWFzPYZqIuYVJ+TxJTV4I0lDougb69PBQfHx6Kj7++1f8ff9+G/nnw4fDz4e3ej7lSraRcs6tb28RpIZotYGCEJ8eH7di1L2CLL/Ozl7/KlFJcs6tbzm2y8sh3nTO71nXQF/u71tTmoMkOefWWiDxAAQpgVMbaP8WKUuSc25i70eFIcgO06kNlLIkOecW1eUnHIQgRVH01UApSpJzbif0fXSovSB9N1BKkuScW3SHn3igtSBDNVAKkuSc24k93yncVpChG2hKSXLOrVN393CwpSA3l5dXxWbzY88vXN+I2cpVeY+5uzWWHMe+AFbrdTZ9lU0iXZr35uIiyHEVYoaWY8xJMrYcjbklepG0S4/sj7UTpDo9wuRoukKuAD0WM+QkmUqOfb6/l8viz3J5SD+XKWItyFjToyzNEJJMLcc+v5/n5y+pZjJF/AQpnV6Fmw8/Pzz0PSha369PSVKRIyQd7kfb38S5u/U/2Rs2W4u0OwBBJhAksO9DkpTkQJBY5RI/rtxUU02QPhbuqcmBIIk3fuzHKzfWFGuQ6udUJkmKcoS8KmuQWfzhWFvf+J1iVa6BjLmL1VSMLpKkKge7WG2qzej3U1wHacMTI0mqctR89tvVen3dlvMcfm83QUJRqtdCpl6LxKxJZiRHeMpLFqdXoS6WguwkefW0kqQlKYrwSKHtlf/wSmHt1NdOXOpTxFaQGUqCHBPYZC3I3CRhcoxviL0gc5EEOcaXw3oNUsVdXQSntCYJz94a8nb82NaL2WmLfa+5HMcEKVUqVUlSaCZHOZggNZ2HJG+huMqBIA1fzUjyAsZZDgQ5cu6CJP3ccZzC6eEpn4E1CJLUEnCfHHsoCNLy9eI4SZDjpSkQJGL+OkmCHK8bAkEiBEn5YmLkx486DDneYkKQqNZ5PijnSYIc9Y2AIB0EyVUS5GhuAgTpKEhukiDH8QZAEEGQXCRBjvbiI0g7o8Yj5rwmQY64wiNIHKesJEGO+KIjSDyrLCRBjm4FR5BuvGYtCXJ0LzaCdGc2S0mQQys0gmjcaqNSfTRP+LAIohUaQTRub6JSlmP/YZGke7ERpDuzWcqBJFqhEUTjdoiaw+SopsgkiS86gsSzmvXkQBKt0AiicXtzZ28qz63qkg6TpJ0WgrQzympyMEm6FRxBuvHKYnIgSXzRESSeVZZysLt1vAEQJFKQOe5WRaZ2OIw1yVtiCBLRRQ5yMEnqGwFBWgRxkgNJmCAR8+LlEEc5kOR1izBBGpRxlgNJXpoCQWoEQY4XKO4LdwSpCIIcb78xnCVBkFI/IEfzEs1VEgTZ9USqcoTG/PvuXfH54aHTBsMQBztKgiA1jxRN5cbDckOm9H8m/jo7q2z1LL6v7u6+DSHl1O9pL0jKk6PaiEgyvi7WgsxJjn1rIMm4ktgKMjM5bouiuEKSceUI/5qlIDeXl1fFZvNjjzvFNcehFRbP5/epPua0buG+Wq+z6atsEuny3XJzcRHk2H4jz0GOfW6zkWQndZeapHqsnSDV6fHl/n4ryZSvLtunqUrye7ks/iyXB4y5TBFrQVKYHl3kSH2S/Dw/L93ElMfWr58gpdOrqXeEFDlSliRsS4ectq9MTrMQZKIr1KfIkaokCDLliXpP/3b5HH6qCdKHHClKgiA9NemUb1MWZIo1SJ9ypCZJZQ1yvbq7C9dvZv3yO8WqXAMZcxdrCDlSkYRdrFl/D7z+8FNcBxlSjqklqcntdrVeX+fQMnYTJBStei1k6LXIGHJMKcmrtcfzDlYWp1fbVHKwXMlhrAtuY8oxhSQ1cmR167utILtJ8q3YbL7uG6vvSTKFHGNKkrsc1hNk6EaaUo6hcwvv7yAHguw6qe/TrRTkGFISFzkQpLR46UuSlOQYQhInORCksro/VZIU5ehTEjc5EKRm+0uVJGU5+pDEUQ4Eadgfrvtz3E+Pj41/N1K9irx920TvZs05N2W7vy3Gepv3GJxqI4Vjwzbwx6engyj7Z1aV/1AoZTmaJklOubU1fNffI8gRYnWStAJOdHJUP3fOubXWqMMBCNICq3pbSuPhMxGj/PmjcyuK290p4+zvzu3gxvPJQNcA1+N3NziG9A+P39mxCM3z35yfLJhzbqf2K4IIBMM3bw5/61CXes65CaVmgijQiPEhwATxqTWZCgQQRIBGiA8BBPGpNZkKBBBEgEaIDwEE8ak1mQoEEESARogPAQTxqTWZCgQQRIBGiA8BBPGpNZkKBBBEgEaIDwEE8ak1mQoEEESARogPAQTxqTWZCgQQRIBGiA8BBPGpNZkKBBBEgEaIDwEE8ak1mQoEEESARogPAQTxqTWZCgQQRIBGiA8BBPGpNZkKBBBEgEaIDwEE8ak1mQoEEESARogPAQTxqTWZCgQQRIBGiA8BBPGpNZkKBBBEgEaIDwEE8ak1mQoEEESARogPAQTxqTWZCgQQRIBGiA8BBPGpNZkKBBBEgEaIDwEE8ak1mQoEEESARogPAQTxqTWZCgQQRIBGiA8BBPGpNZkKBBBEgEaIDwEE8ak1mQoEEESARogPAQTxqTWZCgQQRIBGiA8BBPGpNZkKBBBEgEaIDwEE8ak1mQoEEESARogPAQTxqTWZCgQQRIBGiA8BBPGpNZkKBBBEgEaIDwEE8ak1mQoEEESARogPAQTxqTWZCgQQRIBGiA8BBPGpNZkKBBBEgEaIDwEE8ak1mQoEEESARogPAQTxqTWZCgQQRIBGiA8BBPGpNZkKBP4HyqfgIy0PoYkAAAAASUVORK5CYII=;" vertex="1" parent="1">
          <mxGeometry x="60" y="483" width="20" height="20" as="geometry" />
        </mxCell>
        <mxCell id="ltdOZ-bSlB5xBiouU9c6-34" value="错误" style="text;html=1;align=center;verticalAlign=middle;resizable=0;points=[];autosize=1;strokeColor=none;fillColor=none;" vertex="1" parent="1">
          <mxGeometry x="70" y="478" width="50" height="30" as="geometry" />
        </mxCell>
        <mxCell id="ltdOZ-bSlB5xBiouU9c6-35" value="" style="ellipse;whiteSpace=wrap;html=1;fillColor=none;strokeColor=#EA6B66;" vertex="1" parent="1">
          <mxGeometry x="-5" y="526" width="40" height="10" as="geometry" />
        </mxCell>
        <mxCell id="ltdOZ-bSlB5xBiouU9c6-36" value="" style="ellipse;whiteSpace=wrap;html=1;fillColor=none;strokeColor=#EA6B66;" vertex="1" parent="1">
          <mxGeometry x="74" y="526" width="40" height="10" as="geometry" />
        </mxCell>
        <mxCell id="ltdOZ-bSlB5xBiouU9c6-37" value="" style="ellipse;whiteSpace=wrap;html=1;fillColor=none;strokeColor=#EA6B66;" vertex="1" parent="1">
          <mxGeometry x="-30" y="595" width="40" height="10" as="geometry" />
        </mxCell>
        <mxCell id="ltdOZ-bSlB5xBiouU9c6-38" value="" style="ellipse;whiteSpace=wrap;html=1;fillColor=none;strokeColor=#EA6B66;" vertex="1" parent="1">
          <mxGeometry x="100" y="595" width="40" height="10" as="geometry" />
        </mxCell>
        <mxCell id="ltdOZ-bSlB5xBiouU9c6-39" value="无法处理父类定义的输入范围" style="text;html=1;align=center;verticalAlign=middle;resizable=0;points=[];autosize=1;strokeColor=none;fillColor=none;fontColor=#EA6B66;" vertex="1" parent="1">
          <mxGeometry x="-200" y="516" width="180" height="30" as="geometry" />
        </mxCell>
        <mxCell id="ltdOZ-bSlB5xBiouU9c6-40" value="超出了父类定义的输出范围" style="text;html=1;align=center;verticalAlign=middle;resizable=0;points=[];autosize=1;strokeColor=none;fillColor=none;fontColor=#EA6B66;" vertex="1" parent="1">
          <mxGeometry x="-195" y="585" width="170" height="30" as="geometry" />
        </mxCell>
      </root>
    </mxGraphModel>
  </diagram>
  <diagram id="YjDpd45cUQmgfsJCYlKk" name="DIP">
    <mxGraphModel dx="1782" dy="575" grid="1" gridSize="10" guides="1" tooltips="1" connect="1" arrows="1" fold="1" page="1" pageScale="1" pageWidth="827" pageHeight="1169" math="0" shadow="0">
      <root>
        <mxCell id="0" />
        <mxCell id="1" parent="0" />
        <mxCell id="ZiUo6AuOPjjteuuzlCQH-3" style="edgeStyle=orthogonalEdgeStyle;rounded=0;orthogonalLoop=1;jettySize=auto;html=1;exitX=0.5;exitY=1;exitDx=0;exitDy=0;entryX=0.5;entryY=0;entryDx=0;entryDy=0;" edge="1" parent="1" source="ZiUo6AuOPjjteuuzlCQH-1" target="ZiUo6AuOPjjteuuzlCQH-2">
          <mxGeometry relative="1" as="geometry" />
        </mxCell>
        <mxCell id="ZiUo6AuOPjjteuuzlCQH-1" value="店铺装修服务类 Service" style="rounded=0;whiteSpace=wrap;html=1;" vertex="1" parent="1">
          <mxGeometry x="-20" y="270" width="170" height="60" as="geometry" />
        </mxCell>
        <mxCell id="ZiUo6AuOPjjteuuzlCQH-2" value="店铺装修组装类 Script" style="rounded=0;whiteSpace=wrap;html=1;" vertex="1" parent="1">
          <mxGeometry x="-20" y="400" width="170" height="60" as="geometry" />
        </mxCell>
        <mxCell id="ZiUo6AuOPjjteuuzlCQH-31" style="edgeStyle=orthogonalEdgeStyle;rounded=0;orthogonalLoop=1;jettySize=auto;html=1;exitX=0.5;exitY=0;exitDx=0;exitDy=0;endArrow=open;endFill=0;" edge="1" parent="1" source="ZiUo6AuOPjjteuuzlCQH-4" target="ZiUo6AuOPjjteuuzlCQH-5">
          <mxGeometry relative="1" as="geometry" />
        </mxCell>
        <mxCell id="ZiUo6AuOPjjteuuzlCQH-4" value="店铺装修组装类 Script" style="rounded=0;whiteSpace=wrap;html=1;" vertex="1" parent="1">
          <mxGeometry x="-262" y="1000" width="170" height="60" as="geometry" />
        </mxCell>
        <mxCell id="ZiUo6AuOPjjteuuzlCQH-5" value="下游服务 Adapter" style="rounded=0;whiteSpace=wrap;html=1;" vertex="1" parent="1">
          <mxGeometry x="-262" y="880" width="170" height="60" as="geometry" />
        </mxCell>
        <mxCell id="ZiUo6AuOPjjteuuzlCQH-15" value="" style="endArrow=none;dashed=1;html=1;rounded=0;" edge="1" parent="1">
          <mxGeometry width="50" height="50" relative="1" as="geometry">
            <mxPoint x="-272" y="970" as="sourcePoint" />
            <mxPoint x="18" y="970" as="targetPoint" />
          </mxGeometry>
        </mxCell>
        <mxCell id="ZiUo6AuOPjjteuuzlCQH-17" value="底层服务" style="text;html=1;align=center;verticalAlign=middle;resizable=0;points=[];autosize=1;strokeColor=#b85450;fillColor=#f8cecc;" vertex="1" parent="1">
          <mxGeometry x="-62" y="1015" width="70" height="30" as="geometry" />
        </mxCell>
        <mxCell id="ZiUo6AuOPjjteuuzlCQH-18" value="高层服务" style="text;html=1;align=center;verticalAlign=middle;resizable=0;points=[];autosize=1;strokeColor=#b85450;fillColor=#f8cecc;" vertex="1" parent="1">
          <mxGeometry x="-62" y="910" width="70" height="30" as="geometry" />
        </mxCell>
        <mxCell id="ZiUo6AuOPjjteuuzlCQH-19" style="edgeStyle=orthogonalEdgeStyle;rounded=0;orthogonalLoop=1;jettySize=auto;html=1;exitX=0;exitY=0.5;exitDx=0;exitDy=0;entryX=1;entryY=0.5;entryDx=0;entryDy=0;endArrow=open;endFill=0;" edge="1" parent="1" source="ZiUo6AuOPjjteuuzlCQH-20" target="ZiUo6AuOPjjteuuzlCQH-22">
          <mxGeometry relative="1" as="geometry" />
        </mxCell>
        <mxCell id="ZiUo6AuOPjjteuuzlCQH-20" value="店铺装修组装类 Script" style="rounded=0;whiteSpace=wrap;html=1;" vertex="1" parent="1">
          <mxGeometry x="330" y="1000" width="170" height="60" as="geometry" />
        </mxCell>
        <mxCell id="ZiUo6AuOPjjteuuzlCQH-21" value="下游服务 Adapter" style="rounded=0;whiteSpace=wrap;html=1;" vertex="1" parent="1">
          <mxGeometry x="330" y="880" width="170" height="60" as="geometry" />
        </mxCell>
        <mxCell id="ZiUo6AuOPjjteuuzlCQH-22" value="&lt;div&gt;&amp;lt;&amp;lt;interface&amp;gt;&amp;gt;&lt;/div&gt;数据获取类 SPI" style="rounded=0;whiteSpace=wrap;html=1;" vertex="1" parent="1">
          <mxGeometry x="80" y="1000" width="170" height="60" as="geometry" />
        </mxCell>
        <mxCell id="ZiUo6AuOPjjteuuzlCQH-23" style="edgeStyle=orthogonalEdgeStyle;rounded=0;orthogonalLoop=1;jettySize=auto;html=1;exitX=0.5;exitY=1;exitDx=0;exitDy=0;entryX=0.5;entryY=0;entryDx=0;entryDy=0;endArrow=block;endFill=0;" edge="1" parent="1" source="ZiUo6AuOPjjteuuzlCQH-25" target="ZiUo6AuOPjjteuuzlCQH-22">
          <mxGeometry relative="1" as="geometry" />
        </mxCell>
        <mxCell id="ZiUo6AuOPjjteuuzlCQH-24" style="edgeStyle=orthogonalEdgeStyle;rounded=0;orthogonalLoop=1;jettySize=auto;html=1;exitX=1;exitY=0.5;exitDx=0;exitDy=0;entryX=0;entryY=0.5;entryDx=0;entryDy=0;endArrow=open;endFill=0;" edge="1" parent="1" source="ZiUo6AuOPjjteuuzlCQH-25" target="ZiUo6AuOPjjteuuzlCQH-21">
          <mxGeometry relative="1" as="geometry" />
        </mxCell>
        <mxCell id="ZiUo6AuOPjjteuuzlCQH-25" value="&lt;div&gt;&lt;span style=&quot;background-color: initial;&quot;&gt;数据获取实现类 SPIImpl&lt;/span&gt;&lt;br&gt;&lt;/div&gt;" style="rounded=0;whiteSpace=wrap;html=1;" vertex="1" parent="1">
          <mxGeometry x="80" y="880" width="170" height="60" as="geometry" />
        </mxCell>
        <mxCell id="ZiUo6AuOPjjteuuzlCQH-26" value="+ fetch&lt;div&gt;&lt;/div&gt;" style="rounded=0;whiteSpace=wrap;html=1;" vertex="1" parent="1">
          <mxGeometry x="80" y="1060" width="170" height="20" as="geometry" />
        </mxCell>
        <mxCell id="ZiUo6AuOPjjteuuzlCQH-27" value="+ fetch&lt;div&gt;&lt;/div&gt;" style="rounded=0;whiteSpace=wrap;html=1;" vertex="1" parent="1">
          <mxGeometry x="80" y="940" width="170" height="20" as="geometry" />
        </mxCell>
        <mxCell id="ZiUo6AuOPjjteuuzlCQH-28" value="" style="endArrow=none;dashed=1;html=1;rounded=0;" edge="1" parent="1">
          <mxGeometry width="50" height="50" relative="1" as="geometry">
            <mxPoint x="60" y="980" as="sourcePoint" />
            <mxPoint x="610" y="980" as="targetPoint" />
          </mxGeometry>
        </mxCell>
        <mxCell id="ZiUo6AuOPjjteuuzlCQH-29" value="底层服务" style="text;html=1;align=center;verticalAlign=middle;resizable=0;points=[];autosize=1;strokeColor=#b85450;fillColor=#f8cecc;" vertex="1" parent="1">
          <mxGeometry x="530" y="1015" width="70" height="30" as="geometry" />
        </mxCell>
        <mxCell id="ZiUo6AuOPjjteuuzlCQH-30" value="高层服务" style="text;html=1;align=center;verticalAlign=middle;resizable=0;points=[];autosize=1;strokeColor=#b85450;fillColor=#f8cecc;" vertex="1" parent="1">
          <mxGeometry x="530" y="910" width="70" height="30" as="geometry" />
        </mxCell>
        <mxCell id="ZiUo6AuOPjjteuuzlCQH-33" style="edgeStyle=orthogonalEdgeStyle;rounded=0;orthogonalLoop=1;jettySize=auto;html=1;entryX=0.509;entryY=-0.106;entryDx=0;entryDy=0;entryPerimeter=0;endArrow=open;endFill=0;fillColor=#f8cecc;strokeColor=#b85450;" edge="1" parent="1">
          <mxGeometry relative="1" as="geometry">
            <mxPoint x="-32" y="940" as="sourcePoint" />
            <mxPoint x="-31.36999999999989" y="1011.8200000000002" as="targetPoint" />
          </mxGeometry>
        </mxCell>
        <mxCell id="ZiUo6AuOPjjteuuzlCQH-34" style="edgeStyle=orthogonalEdgeStyle;rounded=0;orthogonalLoop=1;jettySize=auto;html=1;entryX=0.509;entryY=-0.106;entryDx=0;entryDy=0;entryPerimeter=0;endArrow=open;endFill=0;fillColor=#f8cecc;strokeColor=#b85450;" edge="1" parent="1">
          <mxGeometry relative="1" as="geometry">
            <mxPoint x="-17" y="1012" as="sourcePoint" />
            <mxPoint x="-16" y="940" as="targetPoint" />
          </mxGeometry>
        </mxCell>
        <mxCell id="ZiUo6AuOPjjteuuzlCQH-35" style="edgeStyle=orthogonalEdgeStyle;rounded=0;orthogonalLoop=1;jettySize=auto;html=1;entryX=0.509;entryY=-0.106;entryDx=0;entryDy=0;entryPerimeter=0;endArrow=open;endFill=0;fillColor=#f8cecc;strokeColor=#b85450;" edge="1" parent="1">
          <mxGeometry relative="1" as="geometry">
            <mxPoint x="570" y="940" as="sourcePoint" />
            <mxPoint x="570.6300000000001" y="1011.8200000000002" as="targetPoint" />
          </mxGeometry>
        </mxCell>
        <mxCell id="ZiUo6AuOPjjteuuzlCQH-36" value="（1） 底层服务直接依赖高层服务，造成循环依赖。&lt;div&gt;例如，高层服务的变更会导致底层服务也需要变更，不符合开闭原则。&lt;/div&gt;" style="text;html=1;align=center;verticalAlign=middle;resizable=0;points=[];autosize=1;strokeColor=none;fillColor=none;" vertex="1" parent="1">
          <mxGeometry x="-340" y="1090" width="400" height="40" as="geometry" />
        </mxCell>
        <mxCell id="ZiUo6AuOPjjteuuzlCQH-38" value="（2）DIP。底层服务创建接口，由高层服务实现。高层服务在使用底层服务时再提供具体的实现类。&lt;div&gt;避免了循环依赖。对于 Spring 项目而言，还可以自动注入。&lt;/div&gt;" style="text;html=1;align=center;verticalAlign=middle;resizable=0;points=[];autosize=1;strokeColor=none;fillColor=none;" vertex="1" parent="1">
          <mxGeometry x="85" y="1090" width="550" height="40" as="geometry" />
        </mxCell>
        <mxCell id="ZiUo6AuOPjjteuuzlCQH-39" value="" style="shape=image;verticalLabelPosition=bottom;labelBackgroundColor=default;verticalAlign=top;aspect=fixed;imageAspect=0;image=data:image/png,iVBORw0KGgoAAAANSUhEUgAAAcgAAACuCAYAAACye50ZAAAACXBIWXMAAAsTAAALEwEAmpwYAAAgAElEQVR4nOzd228bd374/feQFA9DUiIl8yRRokjrQJ0o2pEdO1HieJMCvwfbNigKFMXz9PfgKdpe7H/Qm6ZIgX168dwVRRfN3i160fZ6gWyMRbL2KopT27RsS9bJkkjGNiXqRJviSRSHz4XAWdOkJNqWD0m+rytpOPOdz8yXnM98D+RIfr+/jCAIgiAIVTSvOwBBEARBeBOJBCkIgiAIdYgEKQiCIAh1iAQpCIIgCHWIBCkIgiAIdYgEKQiCIAh1iAQpCIIgCHWIBCkIgiAIdehetIDb0cJxxCEIwg9IqNvwukMQhBcmWpCCIAiCUMcLtyArxB2jIAiiR0n4ITm2BPki/tf/8cf87//7/8FoNKnLYrEY//zzT1lfX3uNkQmCIAg/VseaIB0OB+vr68+83f/5f/1vfvFvv+Dh6kN12fvvfcDP/9//j0/+4e9ZfWL5Ud566y30ej2RSIRC4eXezba3t6PVann48CGlUunQdU0mE+FwmEKhQCQSealxPa/vQ4w/Vlqtlvb2dvb29kgkEq87HEH4UTi2BOnxeDh37hxzc3PMzs4+07Zms6UqOQJc+f3vKJX2+Nd/+wxJkqpeS6VS/PKXv+Dq5ERNWU6nE6PRiE6ne+kJcnR0FKPRyKVLl8hkMoeuq9PpcLvdZLPZlxrTi/g+xPhjJcsyY2NjZLNZkSAF4RU5tgSZSCSIRqMEg0GAZ06S9Xw9OcHXdZJgd1c3f/e3P6ubIF+lSCSCRqMhn8+/1jiEH75sNsvVq1eP7KkQBOH4HGsX682bN5Ek6ViTZD3ReBSb3dbQumNjY1itVq5evYosy5w+fZpkMsmtW7cAuHDhAnq9nomJCXK5HIFAAL/fz1dffUVbWxu9vb00Nzej1+tJpVJMT0+ztbUFQH9/PwaDQd3WZDIRDAY5ceIERqORfD7PtWvXSKVSVTF1dnbS39+PTqdjaWmJxcVFYL8bbWhoCLfbjdFoJJvNsrKywvLyMuVyGa/Xy8DAAIlEAp1OR3t7O6VSiYWFBVZWVho6H5IkMTg4iMPhoLm5mUKhwPz8PNFo9I2JsZEyAoEA7e3ttLS0oNFoWF1dZXp6mlwuVxW/yWRiY2MDRVFobm4mEomwublJU1MTw8PDuFwudDodW1tbTE1NNdx6Pqqu3W43wWAQq9VKoVBgaWmJpaUlAEKhEC6Xi6WlJTweDy0tLczOztLT08PGxgY3b95U9zM+Pk46nebevXsMDw+Ty+VIJpPAfqtyaGiItrY29Ho9uVyOqakp1tfXsVqtjIyMYLfbURSFRCLBnTt3RIIVhGdw7F/zuHnzJrFYjGAwyMDAwHEX/0wGBgbo7OxkcXGRXC5HKpVClmW8Xi+SJGG322ltbcViseB0OgHo6uoin8+jKAomk4nd3V1mZ2dZXl6mra2NkZERtXyz2YzFYkGj2T+NIyMjdHd3s7m5ydTUFIlEouaCJMsyo6OjZLNZjEYjg4OD6PV6AM6cOcPJkycpFovMzc2h0+kIhUL09fUB0NTUhMViobe3l7a2NjKZjFqewdDYLGK/309fXx/lcplIJEI0Gq3pin7dMTZShsViIZ1Oc/v2bTY2NvB6vQQCAQBaW1sZGxvDbDYTi8XY29vD4/FgsVjQ6XTqcXR3d7OxsUE0GsXlcnHq1KmG4oPD67q1tZVz585hMpm4e/cuiqIQCoVoa2sDwGAwYLFYGB0dRZZltra2WFtbw2w24/P5MJn2J6s5nU4cDgfJZBKNRoPFYsFsNgP7NyrvvfceXq+XQqHA7OwsyWQSRVFoampifHwcp9PJ0tISqVQKv99PT09Pw8cnCMIbMov1MGWlzPbmOul0qirZ/M1f/9Wh21Xu4BcWFrh//z4ApVKJjY0NnE4nra2tuFwuyuUykiThcrlIJpPY7Xa1dRmPx4nH42i1Wmw2G729vdhsR7dcZVkmn8/z3Xff1bxWKpWYmJgglUrx4Ycf0tzcjM1mY2dnB4/HA8D169dJp9PkcjnGxsY4efIk8/Pzahnb29tcuXIFRVG4ePEiNpsNl8tFPB4nGAyqF9gnzczMsLu7q/5vNBqRJInFxUUURXmlMXq9XhwOR02MsVhMbZ0fVcbt27cB0Ov16PV63G63WjddXV0ArK2tqevJskxra6v6d6Xul5aW2NvbIxAI4HQ60Wq1lEqlhs9jvbr2+/1IksTa2hrJZBKz2YzVasXj8bC5uamud//+fa5du6b+v76+jtPpxOfzMTc3h9/vJ5fLsbq6isViqYqjo6MDWZYpFotcvny5qg59Ph9Go5FHjx7x4MEDdnZ2cLvdeDyeqjoSBOFwx5ogJUni1KlT6gf8OLpYt7fWKbcMMfin/4TB7FSXFzJJypc/4VHsSt3tBgcHAWq6zFZXV3E6nbjdbtxuN/F4XL1Tb29vB1AnQTgcDoaGhmhpaWko1tnZWaxWKw6HA4fDQSqV4tq1a+zs7Pwh7kJB7YYrFovq8krLYG9vj3Q6DaCuZzAY0Gq16rrpdFq9ID5+/BibzYbdbicej6sJ42mViU6xWEw91rGxMUZGRohEIqyurr6yGHU6Xd0Yn9z+qDL6+vrw+XxYLJaaBF9JbI8ePVKXlcvlmuOQJIkPPvigaluj0UgmkznyPB5W15X9+3w+fD6fuu3TLehKV2lFLBbD6XTS3d1NLBbD7XazsLBQFXtFJWFub2/XHL8sywC0tLTw0UcfHbh/QRAOd2wJ8mUkR4D048cM/smnxL/5FzIbC+py84k+ui58yp1fXay73fT0NOFwmFAoRCqVYnt7G9hvVQB0d3ej1+u5e/cusH8x6+/vJ5VKqeNYZ8+eRa/XMzk5STKZ5OOPPz481nSaL7/8ErfbzdDQEDabjYGBgapWwkEqiVyn0yHLMtlsVr0IFovFA8eOmpubAdSYKy2mg5RKJb799ls1NrfbTTgc5osvvnhlMUaj0Zoxz6M8WYbVamVoaIh8Ps+lS5eQZZnx8XF13e3tbdxuN1arFdhPmJWkCFTNOP7tb3+rJvsnHXUeD6vrynE+3UI8yoMHDwiFQphMJs6ePYskSQeep0pd2O12NBpNVZKsvJbNZrl06VLdBCsIwtGObQzS7XYfe3IEKJWKGMyuquQIkNlYwGB2HbhdMplkcXERjUajJjqAnZ0ddnZ20Ov1lEolksmkeidvMBjU1qMkSeqFxWKxcPr0aSRJQqPRqC3Npw0PDxMIBNjd3a3qKmxEJpNRv0MaDofxer309/cD1HTVejwegsGg2rotl8s8fNjYd0W7u7sJBoPo9Xr1ZuHpr9G87hiPKqMy5gv7rfzKWLfdbsdisah12NHRwYULF7h48aLaeiqXy2SzWbXOx8bGCAQCdHV1MTo6WrdbtZ7D6joajVIul+no6GB0dBSv10tfX586RnqQcrlMLBYD9scx19bW1GT7tEQiwe7uLk1NTZw/f14dg7Xb7SQSCQqFArIs8/bbb9PZ2UkgECAUCjV0bIIg7DvWr3lMTEw81w8FZDI7tLvba74L+aJmZmZoa2ujtbWVM2fO8PXXXwP7ydNisZBMJtUkWRmLrFxcy+Uyc3NzDA4OEgqFWFtbY21tDZfLRW9vb92LvdVq5eTJk2g0GvUL3dPT0w3He+PGDcLhMC6XC5fLhaIoLC8v15SRz+cJBAIYDAb29va4detWVTfuYQwGAz09PTQ1NVEul9nc3GR2drbhVsariLGRMmKxGJ2dnYTDYVZWVjCZTMiyjM/nY2Zmhrt373Ly5ElkWWZlZQWv14vFYlFbudevXycUCqlJrFwuk8vluHfvXkOxHVbXm5ubXL9+XU2igUCAvb09NfkdJhqNqhOeDmtlFwoFvvnmG06dOoXT6cTpdKIoCjdu3GB7e5vJyUnC4TAejwePx4OiKDWzqQVBOJzk9/tfqP+l8tuLL/JbrPV+aq7iz//sp4z97C5T//kXNa+F//K/uf6LwefebyO0Wi1arVadmFGZ2XpQd6IkSRiNRgqFQs3Y0LPs02AwkMvlqhKX3+8nHA4Tj8eJRCKYTKaadRplMBhQFKVqjPFNibHRMpqamlAUhVKphCRJVes5nU42NzcplUo4HA7Gx8cpl8t8/vnnVbN2NRqNWl/P+hWIRuraYDCg0WgObAkeh6amJnQ6Hfl8vuYcHVRPL8txXA8E4U3xRsxi/c3nv+Y3n//6wNcLmTXMJ/pqxiALmZf/O62lUqnqwnnUha7SEnnRfR71fbxKV+HzetFfGXoVMR5VxpPJ/cn1tFot7777LuVymWKxqHav37t3r+a4FUV57hgbqeuX/WtOsH8eDrrRaaSeBEGo741IkEeJX/5Hui7UzmKNX/7kNUb16qVSKebn59/orrLjiPFFy1AUhcnJSVpaWrBarRSLRZLJZNVMXUEQhKO8EV2sgiD8MIjrgfBDIh6YLAiCIAh1iAQpCIIgCHWIBCkIgiAIdRzbJJ3K2IMgCIIg/BCIFqQgCIIg1PHCLUgxW00QBEH4IRItSEEQBEGoQyRIQRAEQahDJEhBEARBqEMkSEEQBEGoQyRIQRAEQahDJEhBEARBqEMkSEEQBEGo44143FW9BybHYjH++eefsr7+8p/5KAiCIAhPe+HHXT3J4XCwvr7+zNv96j/+i8/+/TMerj5Ul73/3ge8c/48n/zD37P6xPKjvPXWW+j1eiKRyEt/WG17eztarZaHDx8e+TR6k8lEOBymUCgQiURealzP6/sQ44+VVqulvb2dvb09EonEa4uj3nvkWT4HgvB9cmwtSI/Hw7lz55ibm2N2dvaZtjWbLVXJEeDK739HqbTHv/7bZ0iSVPVaKpXil7/8BVcnJ2rKcjqdGI1GdDrdS0+Qo6OjGI1GLl26RCaTOXRdnU6H2+1+o5/u/n2I8cdKlmXGxsbIZrOvNUHWe488y+dAEL5Pji1BJhIJotEowWAQ4JmTZD1fT07wdZ0k2N3Vzd/97c/qJshXKRKJoNFoyOfzrzUO4Ycvm81y9erVN7KFdtyfA6fTyVtvvUUqleKbb745ljIF4Xkc6xjkzZs3kSTpWJNkPdF4FJvd1tC6Y2NjWK1Wrl69iizLnD59mmQyya1btwC4cOECer2eiYkJcrkcgUAAv9/PV199RVtbG729vTQ3N6PX60mlUkxPT7O1tQVAf38/BoNB3dZkMhEMBjlx4gRGo5F8Ps+1a9dIpVJVMXV2dtLf349Op2NpaYnFxUVgvxttaGgIt9uN0Wgkm82ysrLC8vIy5XIZr9fLwMAAiUQCnU5He3s7pVKJhYUFVlZWGjofkiQxODiIw+GgubmZQqHA/Pw80Wj0jYmxkTICgQDt7e20tLSg0WhYXV1lenqaXC5XFb/JZGJjYwNFUWhubiYSibC5uUlTUxPDw8O4XC50Oh1bW1tMTU013Ho+qq7dbjfBYBCr1UqhUGBpaYmlpSUAQqEQLpeLpaUlPB4PLS0tzM7O0tPTw8bGBjdv3lT3Mz4+Tjqd5t69ewwPD5PL5Ugmk8B+q3JoaIi2tjb0ej25XI6pqSnW19exWq2MjIxgt9tRFIVEIsGdO3caTrAHlV0vCT79OTjq3L7//vsYDAbu3LlDX18fVquVRCLB1NQUOp2Ot956C6PRiMPh4I/+6I/4n//5Hx49etRQ3IJwnI59FuvNmzeJxWIEg0EGBgaOu/hnMjAwQGdnJ4uLi+RyOVKpFLIs4/V6kSQJu91Oa2srFosFp9MJQFdXF/l8HkVRMJlM7O7uMjs7y/LyMm1tbYyMjKjlm81mLBYLGs3+aRwZGaG7u5vNzU2mpqZIJBI1FyRZlhkdHSWbzWI0GhkcHESv1wNw5swZTp48SbFYZG5uDp1ORygUoq+vD4CmpiYsFgu9vb20tbWRyWTU8gyGxn403u/309fXR7lcJhKJEI1Ga7qiX3eMjZRhsVhIp9Pcvn2bjY0NvF4vgUAAgNbWVsbGxjCbzcRiMfb29vB4PFgsFnQ6nXoc3d3dbGxsEI1GcblcnDp1qqH44PC6bm1t5dy5c5hMJu7evYuiKIRCIdra2gAwGAxYLBZGR0eRZZmtrS3W1tYwm834fD5Mpv3Jak6nE4fDQTKZRKPRYLFYMJvNwP6NynvvvYfX66VQKDA7O0symURRFJqamhgfH8fpdLK0tEQqlcLv99PT09PQsR1Wdj1Pfw6OOreV9d9++2329vaQJAmfz4fL5aJUKrG2tj8xL5fLsby8LHpohNfmjZjFepiyUmZ7c510OlWVbP7mr//q0O0qd/ALCwvcv38fgFKpxMbGBk6nk9bWVlwuF+VyGUmScLlcJJNJ7Ha72rqMx+PE43G0Wi02m43e3l5stqNbrrIsk8/n+e6772peK5VKTExMkEql+PDDD2lubsZms7Gzs4PH4wHg+vXrpNNpcrkcY2NjnDx5kvn5ebWM7e1trly5gqIoXLx4EZvNhsvlIh6PEwwG1Qvsk2ZmZtjd3VX/NxqNSJLE4uJizYXvZcfo9XpxOBw1McZiMbV1flQZt2/fBkCv16PX63G73WrddHV1AbC2tqauJ8syra2t6t+Vul9aWmJvb49AIIDT6USr1VIqlRo+j/Xq2u/3I0kSa2trJJNJzGYzVqsVj8fD5uamut79+/e5du2a+v/6+jpOpxOfz8fc3Bx+v59cLsfq6ioWi6Uqjo6ODmRZplgscvny5ao69Pl8GI1GHj16xIMHD9jZ2cHtduPxeJifn0er1RIKhWqObXd3l5mZmUPLtlqtNds9qZFzW3H79m1WVlYYHR0lEAhgt9tJJBKsrq7i8/nIZrNqq1sQXodjTZCSJHHq1Cn1A34cXazbW+uUW4YY/NN/wmB2qssLmSTly5/wKHal7naDg4MANV1mq6urOJ1O3G43brebeDyu3qm3t7cDqJMgHA4HQ0NDtLS0NBTr7OwsVqsVh8OBw+EglUpx7do1dnZ2/hB3oaB2wxWLRXV5pWWwt7dHOp0GUNczGAxotVp13XQ6rV60Hj9+jM1mw263E4/H1YTxtMpEp1gsph7r2NgYIyMjRCIRVldXX1mMOp2uboxPbn9UGX19ffh8PiwWS02CryS2J7vlyuU/TNauHIckSXzwwQdV2xqNRjKZzJHn8bC6ruzf5/Ph8/nUbZ9uQVe6SitisRhOp5Pu7m5isRhut5uFhYWq2CsqCXN7e7vm+GVZBqClpYWPPvqo7v7rHVtlP4eVfZRGzm1F5fiffI8Jwpvk2BLky0iOAOnHjxn8k0+Jf/MvZDYW1OXmE310XfiUO7+6WHe76elpwuEwoVCIVCrF9vY2gNp9093djV6v5+7du8D+xay/v59UKqWOY509exa9Xs/k5CTJZJKPP/748FjTab788kvcbjdDQ0PYbDYGBgaqWgkHqSRynU6HLMtks1n1QlUsFg8cO2pubgZQY660mA5SKpX49ttv1djcbjfhcJgvvvjilcUYjUZrxjyP8mQZVquVoaEh8vk8ly5dQpZlxsfH1XW3t7dxu91qa8dkMqkXbqDqIv3b3/5WTfZPOuo8HlbXleN8uoV4lAcPHhAKhTCZTJw9exZJkg48T5W6sNvtaDSaqkRWeS2bzXLp0qWaBFt5DxzksLKP0si5bdTTs9cF4VU7tjFIt9t97MkRoFQqYjC7qpIjQGZjAYPZdeB2yWSSxcVFNBqNmugAdnZ22NnZQa/XUyqVSCaT6p2swWBQW4+SJFXdUZ8+fRpJktBoNGpL82nDw8MEAgF2d3erugobkclk1O+QhsNhvF4v/f39ADVdtR6Ph2AwqLZuy+UyDx829l3R7u5ugsEger1evVlo9EL0qmI8qozKWBfst/IrY912ux2LxaLWYUdHBxcuXODixYtq66lcLpPNZtU6HxsbIxAI0NXVxejoaN1u1XoOq+toNEq5XKajo4PR0VG8Xi99fX3qGOlByuUysVgM2B/HXFtbU5Pt0xKJBLu7uzQ1NXH+/Hl1DLbSTVkoFJBlmbfffpvOzk4CgUDdbtVnLfsox3FuKy3/1tZWOjs7G95OEI7bsX7NY2Ji4rl+KCCT2aHd3V7zXcgXNTMzQ1tbG62trZw5c4avv/4a2E+eFouFZDKpJsnKWGTl4loul5mbm2NwcJBQKMTa2hpra2u4XC56e3vrXuytVisnT55Eo9GoX+ienp5uON4bN24QDodxuVy4XC4URWF5ebmmjHw+TyAQwGAwsLe3x61bt6q6cQ9jMBjo6emhqamJcrnM5uYms7OzdbvxXleMjZQRi8Xo7OwkHA6zsrKCyWRClmV8Ph8zMzPcvXuXkydPIssyKysreL1eLBaL2sq9fv06oVBITWLlcplcLse9e/caiu2wut7c3OT69etqEg0EAuzt7anJ7zDRaFSd8HRYK7tQKPDNN99w6tQpnE4nTqcTRVG4ceMG29vbTE5OEg6H8Xg8eDweFEWpmU39PGU3Mpv0Rc9tJpNheXkZn8/H2NgY165dU+cRCMKrdKy/pPO86v3UXMWf/9lPGfvZXab+8y9qXgv/5X9z/ReDLzU2rVaLVqtVJ2ZUZrYe1J0oSRJGo5FCofDM4zdP7tNgMJDL5aoSl9/vJxwOE4/HiUQimEymmnUaZTAYUBTlucd/XmaMjZbR1NSEoiiUSiUkSapaz+l0srm5SalUwuFwMD4+Trlc5vPPP6+atavRaNT6etbvGDZS1waDAY1Gc2BL8Dg0NTWh0+nI5/M15+igejqOso/yIuf2yX2/zHMnCId5I2ax/ubzX/Obz3994OuFzBrmE301Y5CFzMv/ndZSqVT14T7qw1q5W37RfR71fbxKV+HzetFfGXoVMR5VxpPJ/cn1tFot7777LuVymWKxqHav37t3r+a4FUV57hgbqeuX/WtOsH8eDrrRaaSenrfso7zIuX3RfQvCcXgjEuRR4pf/ka4LtbNY45c/eY1RvXqpVIr5+fmGu8peh+OI8UXLUBSFyclJWlpasFqtFItFkslk1UxdQRCEo7wRXayCIAiC8KYRz4MUBEEQhDpEghQEQRCEOkSCFARBEIQ6RIIUBEEQhDpEghQEQRCEOkSCFARBEIQ6RIIUBEEQhDpEghQEQRCEOkSCFARBEIQ6RIIUBEEQhDpEghQEQRCEOkSCFARBEIQ6RIIUBEEQhDreiMdd1XtgciwW459//inr6y//mY+CIAiC8LRjfdyVw+FgfX39mbf71X/8F5/9+2c8XH2oLnv/vQ945/x5PvmHv2f1ieVHeeutt9Dr9UQikZf+sNr29na0Wi0PHz488onpJpOJcDhMoVAgEom81Lie1/chxh8rrVZLe3s7e3t7JBKJ1x2OIPwoHFsL0uPxcO7cOebm5pidnX2mbc1mS1VyBLjy+99RKu3xr//2GZIkVb2WSqX45S9/wdXJiZqynE4nRqMRnU730hPk6OgoRqORS5cukclkDl1Xp9Phdrtf6AnrL9v3IcYfK1mWGRsbI5vNigQpCK/IsSXIRCJBNBolGAwCPHOSrOfryQm+rpMEu7u6+bu//VndBPkqRSIRNBoN+Xz+tcYh/PBls1muXr16ZE+FIAjH51jHIG/evIkkSceaJOuJxqPY7LaG1h0bG8NqtXL16lVkWeb06dMkk0lu3boFwIULF9Dr9UxMTJDL5QgEAvj9fr766iva2tro7e2lubkZvV5PKpVienqara0tAPr7+zEYDOq2JpOJYDDIiRMnMBqN5PN5rl27RiqVqoqps7OT/v5+dDodS0tLLC4uAvvdaENDQ7jdboxGI9lslpWVFZaXlymXy3i9XgYGBkgkEuh0Otrb2ymVSiwsLLCystLQ+ZAkicHBQRwOB83NzRQKBebn54lGo29MjI2UEQgEaG9vp6WlBY1Gw+rqKtPT0+Ryuar4TSYTGxsbKIpCc3MzkUiEzc1NmpqaGB4exuVyodPp2NraYmpqquHW81F17Xa7CQaDWK1WCoUCS0tLLC0tARAKhXC5XCwtLeHxeGhpaWF2dpaenh42Nja4efOmup/x8XHS6TT37t1jeHiYXC5HMpkE9luVQ0NDtLW1odfryeVyTE1Nsb6+jtVqZWRkBLvdjqIoJBIJ7ty503CCPaxsh8PBwMAAzc3NKIrC1tYWMzMzpNPpquObn5+ns7MTu91OKpXixo0b9Pb20tHRQS6XY2ZmhvX1dcxmM++88w6PHz9mY2ODkydPotFoWFxcZHt7m5GRESwWCw8ePGBqago4+n1YKTOXyxGLxeq+lwXhKMc+i/XmzZvEYjGCwSADAwPHXfwzGRgYoLOzk8XFRXK5HKlUClmW8Xq9SJKE3W6ntbUVi8WC0+kEoKuri3w+j6IomEwmdnd3mZ2dZXl5mba2NkZGRtTyzWYzFosFjWb/NI6MjNDd3c3m5iZTU1MkEomaC5Isy4yOjpLNZjEajQwODqLX6wE4c+YMJ0+epFgsMjc3h06nIxQK0dfXB0BTUxMWi4Xe3l7a2trIZDJqeQaDoaFz4vf76evro1wuE4lEiEajNV3RrzvGRsqwWCyk02lu377NxsYGXq+XQCAAQGtrK2NjY5jNZmKxGHt7e3g8HiwWCzqdTj2O7u5uNjY2iEajuFwuTp061VB8cHhdt7a2cu7cOUwmE3fv3kVRFEKhEG1tbQAYDAYsFgujo6PIsszW1hZra2uYzWZ8Ph8m0/5kNafTicPhIJlMotFosFgsmM1mYD9BvPfee3i9XgqFArOzsySTSRRFoampifHxcZxOJ0tLS6RSKfx+Pz09PQ0d22Fl22w23n33Xex2O9FolGQyicfj4b333lPfI5XjO336NJIkUSqVcDgc/OQnP8HpdJLP57Hb7Wp9VY7N4/HQ399PNpvFZDIxPDzM+fPnKRaL6HQ6/H4/LS0tav0d9j6slOlwOA58LwvCUd6IWayHKStltjfXSadTVcnmb/76rw7drnIHv7CwwP379wEolUpsbGzgdDppbW3F5XJRLpeRJAmXy0UymcRut6uty3g8TjweR6vVYtT6QBAAACAASURBVLPZ6O3txWY7uuUqyzL5fJ7vvvuu5rVSqcTExASpVIoPP/yQ5uZmbDYbOzs7eDweAK5fv046nSaXyzE2NsbJkyeZn59Xy9je3ubKlSsoisLFixex2Wy4XC7i8TjBYFC9wD5pZmaG3d1d9X+j0YgkSSwuLqIoyiuN0ev14nA4amKMxWJq6/yoMm7fvg2AXq9Hr9fjdrvVuunq6gJgbW1NXU+WZVpbW9W/K3W/tLTE3t4egUAAp9OJVqulVCo1fB7r1bXf70eSJNbW1kgmk5jNZqxWKx6Ph83NTXW9+/fvc+3aNfX/9fV1nE4nPp+Pubk5/H4/uVyO1dVVLBZLVRwdHR3IskyxWOTy5ctVdejz+TAajTx69IgHDx6ws7OD2+3G4/EwPz+PVqslFArVHNvu7i4zMzOHll1Jeg8ePGB6ehoAu92OxWLB6/WyvLysrru8vMzt27fp7e1leHiYTCbD73//eywWCz/5yU9obm6u2n+xWOR3v/sduVyOP/7jP0an03Hz5k0ePnzIuXPn8Hg8WK1WisViw+/Dg97LlVa4IBzmWBOkJEmcOnVK/YAfRxfr9tY65ZYhBv/0nzCYneryQiZJ+fInPIpdqbvd4OAgQE2X2erqKk6nE7fbjdvtJh6Pq3fq7e3tAOokCIfDwdDQkHrXepTZ2VmsVisOhwOHw0EqleLatWvs7Oz8Ie5CQe2GKxaL6vJKy2Bvb0/tqqqsZzAY0Gq16rrpdFq9aD1+/BibzYbdbicej6sJ42mViU6xWEw91rGxMUZGRohEIqyurr6yGHU6Xd0Yn9z+qDL6+vrw+XxYLJaaBF9JbI8ePVKXlct/mKxdOQ5Jkvjggw+qtjUajWQymSPP42F1Xdm/z+fD5/Op2z7dgn76Ih2LxXA6nXR3dxOLxXC73SwsLFTFXlFJmNvb2zXHL8syAC0tLXz00Ud191/v2Cr7aaTsJ8/to0ePsFgsNUm8MqO98h7a3t6mVCpVvaeelM1m1c9rpdW4sbEBUHVT8izvw4Pey4LQiGNLkC8jOQKkHz9m8E8+Jf7Nv5DZWFCXm0/00XXhU+786mLd7aanpwmHw4RCIVKpFNvb28B+qwKgu7sbvV7P3bt3gf2LWX9/P6lUSh3HOnv2LHq9nsnJSZLJJB9//PHhsabTfPnll7jdboaGhrDZbAwMDFS1Eg5SuTDodDpkWSabzaoXnGKxeODYUeUuvBJzpcV0kFKpxLfffqvG5na7CYfDfPHFF68sxmg0WjPmeZQny7BarQwNDZHP57l06RKyLDM+Pq6uu729jdvtxmq1AvsJs3JRBapmHP/2t79VL7JPOuo8HlbXleN8uoV4lAcPHhAKhTCZTJw9exZJkg48T5W6sNvtaDSaqkRWeS2bzXLp0qWaBFt5DxzksLIrE9Iq5xb+kFCPmsl9XJ73fSgIz+rYxiDdbvexJ0eAUqmIweyqSo4AmY0FDGbXgdslk0kWFxfRaDRqogPY2dlhZ2cHvV5PqVQimUyqd/IGg0FtPUqSVHVHXela0mg0akvzacPDwwQCAXZ3d6u6ChuRyWTUO+5wOIzX66W/vx+gpqvW4/EQDAbV1m25XObhw8a+K9rd3U0wGESv16s3C09/jeZ1x3hUGZUxX0CdMAJ/6Oqr1GFHRwcXLlzg4sWLauupXC6TzWbVOh8bGyMQCNDV1cXo6GjdbtV6DqvraDRKuVymo6OD0dFRvF4vfX196pjbQcrlMrFYDNgfx1xbW1OT7dMSiQS7u7s0NTVx/vx5dQzWbreTSCQoFArIsszbb79NZ2cngUCgbrfqs5Ydj8eB/boJBAIEg0Gam5tf6fczn+V9KAgv4li/5jExMfFcPxSQyezQ7m6v+S7ki5qZmaGtrY3W1lbOnDnD119/DewnT4vFQjKZVJNkZSyy8iEvl8vMzc0xODhIKBRibW2NtbU1XC4Xvb29dS/2VqtVnYFXuWBUxmkacePGDcLhMC6XC5fLhaIoLC8v15SRz+cJBAIYDAb29va4detWVTfuYQwGAz09PTQ1NVEul9nc3GR2drZuN97rirGRMmKxGJ2dnYTDYVZWVjCZTMiyjM/nY2Zmhrt373Ly5ElkWWZlZQWv14vFYlFbF9evXycUCqlJrFwuk8vluHfvXkOxHVbXm5ubXL9+XU2igUCAvb09NfkdJhqNqhNNDmtlFwoFvvnmG06dOoXT6cTpdKIoCjdu3GB7e5vJyUnC4TAejwePx4OiKDWzqZ+n7Pv37xOJRBgeHmZ0dBTYb03funWr4RnAlfdaI++5g9Zp9H0oCC/iWH9J53nV+6m5ij//s58y9rO7TP3nX9S8Fv7L/+b6LwZfamxarRatVquOgVRmth7UjSNJEkajkUKhUDN+8yz7NBgM5HK5qguE3+8nHA4Tj8eJRCKYTKaadRplMBhQFOW5x2VeZoyNltHU1ISiKJRKJSRJqlrP6XSyubmpzqAcHx+nXC7z+eefV83a1Wg0an09a9dcI3VtMBjQaDQHtgSPQ1NTEzqdjnw+X3OODqqn4yjbZDJRKpWqxgdftRc9PkE4zBsxi/U3n/+a33z+6wNfL2TWMJ/oqxmDLGRe/u+0lkqlqgvnURe6SkvkRfd51N14pavweb3orwy9ihiPKuPJ5P7kelqtlnfffZdyuUyxWFS71+/du1dz3IqiPHeMjdT1y/41J9g/Dwfd6DRST89b9stM+o160eMThMO8EQnyKPHL/0jXhdpZrPHLn7zGqF69VCrF/Px8w11lr8NxxPiiZSiKwuTkJC0tLerXApLJZNVMXUEQhKO8EV2sgiAIgvCmEc+DFARBEIQ6RIIUBEEQhDpEghQEQRCEOkSCFARBEIQ6RIIUBEEQhDpEghQEQRCEOkSCFARBEIQ6RIIUBEEQhDpEghQEQRCEOkSCFARBEIQ6RIIUBEEQhDpEghQEQRCEOkSCFARBEIQ63ojHXdV7YHIsFuOff/4p6+sv/5mPgiAIgvC0Y33clcPhYH19/Zm3+9V//Bef/ftnPFx9qC57/70PeOf8eT75h79n9YnlR3nrrbfQ6/VEIpGX/rDa9vZ2tFotDx8+PPJp9CaTiXA4TKFQIBKJvNS4ntf3IcYfK61WS3t7O3t7eyQSiVe+/87OTrxeLw8ePCAejx+5fm9vLydOnGBpaYlkMvkKIhSE43dsLUiPx8O5c+eYm5tjdnb2mbY1my1VyRHgyu9/R6m0x7/+22dIklT1WiqV4pe//AVXJydqynI6nRiNRnQ63UtPkKOjoxiNRi5dukQmkzl0XZ1Oh9vtfqOffv59iPHHSpZlxsbGyGazryVBWq1W3G43jx8/bmh9m82G2+3m4cPGb24F4U1zbAkykUgQjUYJBoMAz5wk6/l6coKv6yTB7q5u/u5vf1Y3Qb5KkUgEjUZDPp9/rXEIP3zZbJarV68e2VMhCMLxOdYxyJs3byJJ0rEmyXqi8Sg2u62hdcfGxrBarVy9ehVZljl9+jTJZJJbt24BcOHCBfR6PRMTE+RyOQKBAH6/n6+++oq2tjZ6e3tpbm5Gr9eTSqWYnp5ma2sLgP7+fgwGg7qtyWQiGAxy4sQJjEYj+Xyea9eukUqlqmLq7Oykv78fnU7H0tISi4uLwH432tDQEG63G6PRSDabZWVlheXlZcrlMl6vl4GBARKJBDqdjvb2dkqlEgsLC6ysrDR0PiRJYnBwEIfDQXNzM4VCgfn5eaLR6BsTYyNlBAIB2tvbaWlpQaPRsLq6yvT0NLlcrip+k8nExsYGiqLQ3NxMJBJhc3OTpqYmhoeHcblc6HQ6tra2mJqaarj1fFRdu91ugsEgVquVQqHA0tISS0tLAIRCIVwuF0tLS3g8HlpaWpidnaWnp4eNjQ1u3ryp7md8fJx0Os29e/cYHh4ml8upXZayLDM0NERbWxt6vZ5cLsfU1BTr6+tYrVZGRkaw2+0oikIikeDOnTsNJ9iWlhbC4TDNzc3s7OxQLBarXnc4HId+NgThh+DYZ7HevHmTWCxGMBhkYGDguIt/JgMDA3R2drK4uEgulyOVSiHLMl6vF0mSsNvttLa2YrFYcDqdAHR1dZHP51EUBZPJxO7uLrOzsywvL9PW1sbIyIhavtlsxmKxoNHsn8aRkRG6u7vZ3NxkamqKRCJRc0GSZZnR0VGy2SxGo5HBwUH0ej0AZ86c4eTJkxSLRebm5tDpdIRCIfr6+gBoamrCYrHQ29tLW1sbmUxGLc9gMDR0Tvx+P319fZTLZSKRCNFotKYr+nXH2EgZFouFdDrN7du32djYwOv1EggEAGhtbWVsbAyz2UwsFmNvbw+Px4PFYkGn06nH0d3dzcbGBtFoFJfLxalTpxqKDw6v69bWVs6dO4fJZOLu3bsoikIoFKKtrQ0Ag8GAxWJhdHQUWZbZ2tpibW0Ns9mMz+fDZNqfrOZ0OnE4HCSTSTQaDRaLBbPZDOzfqLz33nt4vV4KhQKzs7Mkk0kURaGpqYnx8XGcTidLS0ukUin8fj89PT0NHZtWq+Wdd96htbWVzc1Ntra2aG1trVrnqM+GIPwQvBGzWA9TVspsb66TTqeqks3f/PVfHbpd5Q5+YWGB+/fvA1AqldjY2MDpdNLa2orL5aJcLiNJEi6Xi2Qyid1uV1uX8XiceDyOVqvFZrPR29uLzXZ0y1WWZfL5PN99913Na6VSiYmJCVKpFB9++CHNzc3YbDZ2dnbweDwAXL9+nXQ6TS6XY2xsjJMnTzI/P6+Wsb29zZUrV1AUhYsXL2Kz2XC5XMTjcYLBoHqBfdLMzAy7u7vq/0ajEUmSWFxcRFGUVxqj1+vF4XDUxBiLxapaIIeVcfv2bQD0ej16vR63263WTVdXFwBra2vqerIsqxd5WZbVul9aWmJvb49AIIDT6USr1VIqlRo+j/Xq2u/3I0kSa2trJJNJzGYzVqsVj8fD5uamut79+/e5du2a+v/6+jpOpxOfz8fc3Bx+v59cLsfq6ioWi6Uqjo6ODmRZplgscvny5ao69Pl8GI1GHj16xIMHD9jZ2cHtduPxeJifn0er1RIKhWqObXd3l5mZGTweD0ajkWKxyDfffEO5XGZvb0+9CYLn/2wIwvfJsSZISZI4deqU+gE/ji7W7a11yi1DDP7pP2EwO9XlhUyS8uVPeBS7Une7wcFBgJous9XVVZxOJ263G7fbTTweV+/U29vbAdRJEA6Hg6GhIVpaWhqKdXZ2FqvVisPhwOFwkEqluHbtGjs7O3+Iu1BQu+Ge7LaqtAz29vZIp9MA6noGgwGtVquum06n1Qvi48ePsdls2O124vG4mjCeVpnoFIvF1GMdGxtjZGSESCTC6urqK4tRp9PVjfHJ7Y8qo6+vD5/Ph8ViqUnwlcT26NEjdVm5/IfJ2pXjkCSJDz74oGpbo9FIJpM58jweVteV/ft8Pnw+n7rt0y3op2d3xmIxnE4n3d3dxGIx3G43CwsLVbFXVBLm9vZ2zfHLsgzsd5N+9NFHdfdf79gq+6nEn0ql1GVPx/Csnw1B+D46tgT5MpIjQPrxYwb/5FPi3/wLmY0Fdbn5RB9dFz7lzq8u1t1uenqacDhMKBQilUqxvb0N7LcqALq7u9Hr9dy9exfYv5j19/eTSqXUcayzZ8+i1+uZnJwkmUzy8ccfHx5rOs2XX36J2+1maGgIm83GwMBAVSvhIJVErtPpkGWZbDarXgSLxeKBY0fNzc0AasyVFtNBSqUS3377rRqb2+0mHA7zxRdfvLIYo9FozZjnUZ4sw2q1MjQ0RD6f59KlS8iyzPj4uLru9vY2brcbq9UK7F/wK0kRqJpx/Nvf/lZN9k866jweVteV43y6hXiUBw8eEAqFMJlMnD17FkmSDjxPlbqw2+1oNJqqJFl5LZvNcunSpZrkVnkPHHZsQFWr9enW9LN+NgTh++jYEqTb7T725AhQKhUxmF1VyREgs7GAwew6cLtkMsni4iK9vb2cPXuWr776it3dXXZ2dtjZ2cFisVAqlUgmk2i1Wnw+HwaDgeXlZWA/4VcuLBaLRR23lCSJ9vb2utPXK5MoUqkUW1tb6gW6EZlMhvX1dRwOB+FwmHg8ro4ZPd1V6/F4CAaDaLVaWlpaKJfLDU+n7+7uxmg0quNebre75ms0rzvGo8p4sqXpcDjULlW73Y7FYiGRSDAwMEBHRwcXLlzAbDarLaZyuUw2myWZTOJ0OhkbG1PHKe12OwsLC2qCO8xhdR2NRuns7KSjo4Pd3V02NzeRZZm9vT31/VVPuVwmFovR19dHa2srq6urB8aSSCQYGhpCr9dz/vx5YrEYer2e7e1tEokEhUIBWZZ5++23efDggTque1Tih/3PTqlUwmQycf78eUqlEh0dHerrz/PZEITvo2ObpJNIJJiYmHiu5JjJ7NDubj+uUFQzMzNsbW0hyzJnzpxRl1e6tioXgmQyqX7gK92r5XKZubk5isUioVAIg8Ggtj57e3vr7s9qtTI8PMz7779PR0cHiUSC6enphuO9ceOG2gV85swZWlpaWF5erikjn88TCATo6+ujVCoRiUSqunEPYzAY6Onp4d133yUUCrG5ucn169frduO9rhiPKuPRo0dqQgiHwzx69IhsNktTUxM+n49Hjx5x9+5dNUmsrKyorcZKK/f69evcv3+flpYWRkdHOX36NG63W51wdZTD6rpyTivxnzlzhv7+/ppxxHqebDEe1souFAp88803PH78WK2LkZERzGYzu7u7TE5Osr29jcfjUbvS7XZ7Q8emKAozMzMoioLb7cZisVTF8jyfDUH4PjrWX9J5XvV+aq7iz//sp4z97C5T//kXNa+F//K/uf6LwZcam1arRavVqhMzKrP3DupOlCQJo9FIoVCoGRt6ln0aDAZyuVxV4vL7/WrLLRKJYDKZatZplMFgQFGUmun7b0KMjZbR1NSEoiiUSiUkSapaz+l0srm5SalUwuFwMD4+Trlc5vPPP6+atavRaNT6etbvGDZS1waDAY1G01Cr9Hk1NTWh0+nI5/M15+igemqEVqtVvz5y0OvP8tkQhO+bN2IW628+/zW/+fzXB75eyKxhPtFXMwZZyLz832ktlUpVH/ijLnTlcvmFL4alUunI7+NVugqf14v+ytCriPGoMp5M7k+up9VqeffddymXyxSLRbV79d69ezXHrSjKc8fYSF2/7F9zgv3zcNCNTiP1dJBSqXTo8T3rZ0MQvm/eiAR5lPjlf6TrQu0s1vjlT15jVK9eKpVifn6+5ocH3iTHEeOLlqEoCpOTk7S0tGC1WikWiySTyaqZuoIgCEd5I7pYBUEQBOFNI54HKQiCIAh1iAQpCIIgCHWIBCkIgiAIdYgEKQiCIAh1iAQpCIIgCHWIBCkIgiAIdYgEKQiCIAh1iAQpCIIgCHWIBCkIgiAIdYgEKQiCIAh1iAQpCIIgCHWIBCkIgiAIdYgEKQiCIAh1vBGPu6r3wORYLMY///xT1tdf/jMfBUEQBOFpx/q4K4fDwfr6+jNv96v/+C8++/fPeLj6UF32/nsf8M7583zyD3/P6hPLj/LWW2+h1+uJRCIv/WG17e3taLVaHj58eORT1E0mE+FwmEKhQCQSealxPa/vQ4w/Vlqtlvb2dvb29kgkEq87HEH4UTi2FqTH4+HcuXPMzc0xOzv7TNuazZaq5Ahw5fe/o1Ta41//7TMkSap6LZVK8ctf/oKrkxM1ZTmdToxGIzqd7qUnyNHRUYxGI5cuXSKTyRy6rk6nw+12P/fT3V+F70OMP1ayLDM2NkY2mxUJUhBekWNLkIlEgmg0SjAYBHjmJFnP15MTfF0nCXZ3dfN3f/uzugnyVYpEImg0GvL5/GuNQ/jhy2azXL169cieCkEQjs+xjkHevHkTSZKONUnWE41HsdltDa07NjaG1Wrl6tWryLLM6dOnSSaT3Lp1C4ALFy6g1+uZmJggl8sRCATw+/189dVXtLW10dvbS3NzM3q9nlQqxfT0NFtbWwD09/djMBjUbU0mE8FgkBMnTmA0Gsnn81y7do1UKlUVU2dnJ/39/eh0OpaWllhcXAT2u9GGhoZwu90YjUay2SwrKyssLy9TLpfxer0MDAyQSCTQ6XS0t7dTKpVYWFhgZWWlofMhSRKDg4M4HA6am5spFArMz88TjUbfmBgbKSMQCNDe3k5LSwsajYbV1VWmp6fJ5XJV8ZtMJjY2NlAUhebmZiKRCJubmzQ1NTE8PIzL5UKn07G1tcXU1FTDreej6trtdhMMBrFarRQKBZaWllhaWgIgFArhcrlYWlrC4/HQ0tLC7OwsPT09bGxscPPmTXU/4+PjpNNp7t27x/DwMLlcjmQyCey3KoeGhmhra0Ov15PL5ZiammJ9fR2r1crIyAh2ux1FUUgkEty5c6fhBPv+++9jMBiYm5ujp6eHbDbL/Pw8Z86c4fHjx3z77bcAvPPOO5jNZq5evUo6na6qu0o95PN57t69y9raWlXZd+7coa+vD6vVSiKRYGpqCkVRkCSJnp4euru7MZlMpNNppqen1eGberFV4hGE43Tss1hv3rxJLBYjGAwyMDBw3MU/k4GBATo7O1lcXCSXy5FKpZBlGa/XiyRJ2O12WltbsVgsOJ1OALq6usjn8yiKgslkYnd3l9nZWZaXl2lra2NkZEQt32w2Y7FY0Gj2T+PIyAjd3d1sbm4yNTVFIpGouSDJsszo6CjZbBaj0cjg4CB6vR6AM2fOcPLkSYrFInNzc+h0OkKhEH19fQA0NTVhsVjo7e2lra2NTCajlmcwGBo6J36/n76+PsrlMpFIhGg0WtMV/bpjbKQMi8VCOp3m9u3bbGxs4PV6CQQCALS2tjI2NobZbCYWi7G3t4fH48FisaDT6dTj6O7uZmNjg2g0isvl4tSpUw3FB4fXdWtrK+fOncNkMnH37l0URSEUCtHW1gaAwWDAYrEwOjqKLMtsbW2xtraG2WzG5/NhMu1PVnM6nTgcDpLJJBqNBovFgtlsBvZvVN577z28Xi+FQoHZ2VmSySSKotDU1MT4+DhOp5OlpSVSqRR+v5+enp6Gj6/y3n7rrbdQFIWdnR20Wi0WiwVZlmvW02q1VXXX09NDR0cHmUwGm83G4OBgzTZvv/02e3t7SJKEz+fD5XIB0Nvby/DwMMVikdnZWXXdyj7qxSYIL8MbMYv1MGWlzPbmOul0qirZ/M1f/9Wh21Xu4BcWFrh//z4ApVKJjY0NnE4nra2tuFwuyuUykiThcrlIJpPY7Xa1dRmPx4nH42i1Wmw2G729vdhsR7dcZVkmn8/z3Xff1bxWKpWYmJgglUrx4Ycf0tzcjM1mY2dnB4/HA8D169dJp9PkcjnGxsY4efIk8/Pzahnb29tcuXIFRVG4ePEiNpsNl8tFPB4nGAyqF9gnzczMsLu7q/5vNBqRJInFxUUURXmlMXq9XhwOR02MsVhMbZ0fVcbt27cB0Ov16PV63G63WjddXV0ArK2tqevJskxra6v6d6Xul5aW2NvbIxAI4HQ60Wq1lEqlhs9jvbr2+/1IksTa2hrJZBKz2YzVasXj8bC5uamud//+fa5du6b+v76+jtPpxOfzMTc3h9/vJ5fLsbq6isViqYqjo6MDWZYpFotcvny5qg59Ph9Go5FHjx7x4MEDdnZ2cLvdeDwe5ufn0Wq1hEKhmmPb3d1lZmamatmtW7fUVnslwTcik8nwu9/9DkmS+OlPf4rNZkOSJMrlP8wJvH37NisrK4yOjhIIBLDb7SQSCfx+P7D/ftjY2MDj8dDW1obD4WB1dbVubILwMhxrgpQkiVOnTqkf8OPoYt3eWqfcMsTgn/4TBrNTXV7IJClf/oRHsSt1t6vcsT7dZba6uorT6cTtduN2u4nH4+qdent7O4DaPeRwOBgaGqKlpaWhWGdnZ7FarTgcDhwOB6lUimvXrlXd4RYKBbUbrlgsqssrLYO9vT3S6TSAup7BYFDvngHS6bR6QXz8+DE2mw273U48HlcTxtMqE51isZh6rGNjY4yMjBCJRKouPC87Rp1OVzfGJ7c/qoy+vj58Ph8Wi6UmwVcS26NHj9RlT16YK8chSRIffPBB1bZGo5FMJnPkeTysriv79/l8+Hw+ddunW9CVrtKKWCyG0+mku7ubWCyG2+1mYWGhKvaKSsLc3t6uOf5KC6+lpYWPPvqo7v7rHVu9/TwdY6O2trYoFos1E+zqlf3ke0ySJPX8hcPhqvWPOn+CcNyOLUG+jOQIkH78mME/+ZT4N/9CZmNBXW4+0UfXhU+586uLdbebnp4mHA4TCoVIpVJsb28DqOMg3d3d6PV67t69C+xfzPr7+0mlUuo41tmzZ9Hr9UxOTpJMJvn4448PjzWd5ssvv8TtdjM0NITNZmNgYKCqlXCQSiLX6XTIskw2m1UvgsVi8cCxo+bmZgA15kqL6SClUolvv/1Wjc3tdhMOh/niiy9eWYzRaLRmzPMoT5ZhtVoZGhoin89z6dIlZFlmfHxcXXd7e/v/b+9uftpI8wSOf8vvLtsYQ/wKxLyHl8SYaUI6anrTrZlba3c0Gmk02pfDancP8x/sZXs0K83uYW+r1bS0c9vTaM+tSU8UdTa9CelWAglpCO9gMwGDweAEjG2wq/aAXItjA+YtoXuezynBVU/9qp5y/ep5qTI+nw+HwwHsJcxCUgSKZhzfvXtXS/b7HXUcD6vrwn6+2UI8yuLiIqFQCKvVSn9/P5IkHXicCnXhcrnQ6XRFSbLw2fb2Nnfu3ClJfIVz4KQK3dRWq7XibvNKqapKOp1GlmWePn167PNEEM7SmSVIn8935skRIJ/fxWzzFiVHgNTaFGab98D14vE409PTtLW10d/fz71799jZ2WFra4utrS3sdjv5fJ54PI5erycYDGI2m5mbmwMo6g6y2+3auKUkSQQCAZaWSp/NLEyiSCaTrK+vaxfoSqRSKVZXV3G73YTDYRYWFrQxoze7av1+4NSArwAAEpVJREFUPx0dHej1epxOJ6qqlo2nnMbGRiwWizbu5fP5Dr3LfxcxHlXG/pam2+3WulRdLhd2u51YLEZnZyd1dXXcunULm82mtZhUVWV7e5t4PI7H46Gvr08bp3S5XExNTWkJ7jCH1XUkEqGhoYG6ujp2dnZIJBLIskwul9POr3JUVSUajdLe3k5NTQ3Ly8sHxhKLxeju7sZkMnHz5k2i0Sgmk4mNjQ1isRjZbBZZlrlx4waLi4va2OBRif8wm5ubqKqKzWYjHA7j9XoxGo0nLu8gkUiErq4uOjs7sVgsbG1tUVVVxdrammg1Cm/VmT7m8eDBgxO9KCCV2iLgC5Q8C3laY2Nj1NbWUlNTw/Xr13n48CGwlzztdjvxeFxLkoWxyEL3qqqqTExM0NXVRSgUYmVlhZWVFbxeL21tbWUv9g6Hg5aWFnQ6nfZA9+joaMXxDg0NaRcer9eLoijMzc2VlJHJZGhubsZsNpPL5RgZGal4ooLZbKa1tRWj0YiqqiQSCcbHx8t2r72rGCspIxqN0tDQQDgcZn5+HqvViizLBINBxsbGePHiBS0tLciyzPz8PPX19dpNEeyNoYZCIerq6ujp6dFaLjMzMxXFdlhdJxIJnjx5wtWrV2lubqa5uZlcLkc0Gj2y3Egkok14Oqz1lM1mefToEb29vXg8HjweD4qiMDQ0xMbGBoODg4TDYfx+P36/H0VRSmZTH9fOzg4zMzO0tLQQDAaZmZnB7/cf60awElNTU+h0OlpbW7WJftlsltevX5/pdgThKGf6Jp2TKvequYKf/uQT+n7xgme/+1nJZ+Gf/zdPPusq+ftZ0uv16PV6bWJGYWbrQd2JkiRhsVjIZrMlY0PH2abZbCadThclrqamJq3lNjw8jNVqLVmmUmazGUVRisZ/LkqMlZZhNBpRFIV8Pq+NXRWW83g8JBIJ8vk8brebgYEBVFXl9u3bRbN2dTqdVl/Hfcawkro2m83odLqKWqUnZTQaMRgMZDKZkmN0UD2ddnuF437erFYruVzuxOepIJzGhZjF+sXtz/ni9ucHfp5NrWC71F4yBplNnf97WvP5fNGF4KgLXaElctptHvU8XqGr8KRO+5ahtxHjUWXsv2juX06v1/PBBx+gqiq7u7ta9+rMzEzJfiuKcuIYK6nr836bE+wdh4MSSCX1dJLtvS3neWMhCEe5EAnyKAv3f8nlW6WzWBfuf/oOo3r7kskkk5OTp+4qO09nEeNpy1AUhcHBQZxOJw6Hg93dXeLxeNFMXUEQhKNciC5WQRAEQbhoxO9BCoIgCEIZIkEKgiAIQhkiQQqCIAhCGSJBCoIgCEIZIkEKgiAIQhkiQQqCIAhCGad6DvJ55PwfghYEQTgLocazfbG68P0nWpCCIAiCUMaZvElH3JkJgnBRiZ4u4aREC1IQBEEQyhAJUhAEQRDKEAlSEARBEMoQCVIQBEEQyrgQP3dV7geTo9Eo//rrX7G6ev6/+SgIgiAIbzrTBOl2u1ldXT32en/5V3/DZ7/5jKXlJe1vf/bhR/z6X/6NT//pH1ne9/ejvPfee5hMJoaHh8/9x2oDgQB6vZ6lpaUjf13darUSDofJZrMMDw+fa1wn9V2I8U+VXq8nEAiQy+WIxWLvOpxjO853RRAuijNLkH6/n/fff5+JiQnGx8ePta7NZi9KjgBf/e//kM/n+I/f/CeSJBV9lkwm+e1vP+PrwQclZXk8HiwWCwaD4dwTZE9PDxaLhTt37pBKpQ5d1mAw4PP5zvzX3c/SdyHGP1WyLNPX18f29vZ3MkEe57siCBfFmSXIWCxGJBKho6MD4NhJspyHgw94WCYJNl5u5B/+/hdlE+TbNDw8jE6nI5PJvNM4hO+/7e1tvv766+9s6+sk35WbN29y6dIlHj58yPr6+jlGJwjlnWkX69OnT5Ek6UyTZDmRhQjVruqKlu3r68PhcPD1118jyzI/+MEPiMfjjIyMAHDr1i1MJhMPHjwgnU7T3NxMU1MT9+7do7a2lra2NqqqqjCZTCSTSUZHR7Uv65UrVzCbzdq6VquVjo4OLl26hMViIZPJ8PjxY5LJZFFMDQ0NXLlyBYPBwOzsLNPT08BeN1p3dzc+nw+LxcL29jbz8/PMzc2hqir19fV0dnYSi8UwGAwEAgHy+TxTU1PMz89XdDwkSaKrqwu3201VVRXZbJbJyUkikciFibGSMpqbmwkEAjidTnQ6HcvLy4yOjpJOp4vit1qtrK2toSgKVVVVDA8Pk0gkMBqNXL16Fa/Xi8FgYH19nWfPnlXcej6qrn0+Hx0dHTgcDrLZLLOzs8zOzgIQCoXwer3Mzs7i9/txOp2Mj4/T2trK2toaT58+1bYzMDDA5uYmMzMzXL16lXQ6TTweB/Zald3d3dTW1mIymUin0zx79ozV1VUcDgfXrl3D5XKhKAqxWIxvv/224gRbW1tLS0sLly5dQpIk0uk0X375JbB3DnR0dBAIBLBarWSzWebm5pieni67b7///e9LvitvLldTU0MqlWJkZIREIkFnZycejwedTkd/fz8rKytFx0UQ3oYzn8X69OlTotEoHR0ddHZ2nnXxx9LZ2UlDQwPT09Ok02mSySSyLFNfX48kSbhcLmpqarDb7Xg8HgAuX75MJpNBURSsVis7OzuMj48zNzdHbW0t165d08q32WzY7XZ0ur3DeO3aNRobG0kkEjx79oxYLFZyQZJlmZ6eHra3t7FYLHR1dWEymQC4fv06LS0t7O7uMjExgcFgIBQK0d7eDoDRaMRut9PW1kZtbS2pVEorz2yu7G1GTU1NtLe3o6oqw8PDRCKRkq7odx1jJWXY7XY2Nzd5/vw5a2tr1NfX09zcDEBNTQ19fX3YbDai0Si5XA6/34/dbsdgMGj70djYyNraGpFIBK/XS29vb0XxweF1XVNTw/vvv4/VauXFixcoikIoFKK2thYAs9mM3W6np6cHWZZZX19nZWUFm81GMBjEat2brObxeHC73cTjcXQ6HXa7HZvNBuwlqQ8//JD6+nqy2Szj4+PE43EURcFoNDIwMIDH42F2dpZkMklTUxOtra0V7ZskSdy4cYO6ujqmp6cZHR0lkUhon/f19dHe3o7BYGBqaorFxUV2d3cP3Dco/a7sXw5gZ2cHp9NJOBwGYG1tjZ2dHQCWlpZYXl6uuG4E4axciFmsh1EVlY3EKpubyaJk83d/+9eHrle4g5+amuLly5cA5PN51tbW8Hg81NTU4PV6UVUVSZLwer3E43FcLpfWulxYWGBhYQG9Xk91dTVtbW1UVx/dcpVlmUwmwx//+MeSz/L5PA8ePCCZTPLDH/6Qqqoqqqur2drawu/3A/DkyRM2NzdJp9P09fXR0tLC5OSkVsbGxgZfffUViqLw8ccfU11djdfrZWFhgY6ODu0Cu9/Y2Jh2wQGwWCxIksT09DSKorzVGOvr63G73SUxRqPRoq60w8p4/vw5ACaTCZPJhM/n0+rm8uXLAKysrGjLybJMTU2N9u9C3c/OzpLL5Whubsbj8aDX68nn8xUfx3J13dTUhCRJrKysEI/HsdlsOBwO/H5/UaJ5+fIljx8/1v6/urqKx+MhGAwyMTFBU1MT6XSa5eVl7HZ7URx1dXXIsszu7i73798vqsNgMIjFYuHVq1csLi6ytbWFz+fD7/czOTmJXq8nFAqV7NvOzg5jY2MAqKoK7N2IzMzMEI1Ggb2WcyAQAOCbb745sOvzzX07yOzsLM+fP8doNPLJJ59QVVWFLMusrq6SzWaxWCy8fPlSdLEK78SZJkhJkujt7dW+4GfRxbqxvorq7KbrL/4Zs82j/T2biqPe/5RX0a/KrtfV1QVQ0mW2vLyMx+PB5/Ph8/lYWFjQ7tQLX/zCJAi32013dzdOp7OiWMfHx3E4HLjdbtxuN8lkksePH7O1tfX/cWezWjdc4a4b0FoGuVyOzc1NAG05s9mMXq/Xlt3c3NQuiK9fv6a6uhqXy8XCwoKWMN5UmOgUjUa1fe3r6+PatWsMDw8X3aGfd4wGg6FsjPvXP6qM9vZ2gsEgdru9JMEXEturV6+0vxUu+Pv3Q5IkPvroo6J1LRYLqVTqyON4WF0Xth8MBgkGg9q6b7agC12lBdFoFI/HQ2NjI9FoFJ/Px9TUVFHsBYWEubGxUbL/siwD4HQ6+dGPflR2++X2rbAdVVUZGRmht7eXxsZGGhsbWVxcZGhoSNtuPp8/NGm9uW8HKdTR7u4u6XRau5ERE8WEi+DMEuR5JEeAzdev6frzX7Hw6N9JrU1pf7ddaufyrV/x7X99XHa90dFRwuEwoVCIZDLJxsYGsNeqAGhsbMRkMvHixQtg72J25coVksmkNo7V39+PyWRicHCQeDzOj3/848Nj3dzkyy+/xOfz0d3dTXV1NZ2dnRXdSRcuCAaDAVmW2d7e1i5Gu7u7B44dVVVVAWgxF1pMB8nn83zzzTdabD6fj3A4zB/+8Ie3FmMkEikZ8zzK/jIcDgfd3d1kMhnu3LmDLMsMDAxoy25sbODz+XA4HMBewiwkRaBoFuXdu3e1ZL/fUcfxsLou7GelraiCxcVFQqEQVquV/v5+JEk68DgV6sLlcqHT6YqSZOGz7e1t7ty5U5JgC+fAYZaWllhZWSEYDNLZ2UldXR3xeFx7jEuv1+NyubTv1WkZjUbtxuLN5PjmjZMgvC1nliB9Pt+ZJ0eAfH4Xs81blBwBUmtTmG3eA9eLx+NMT0/T1tZGf38/9+7dY2dnh62tLba2trDb7eTzeeLxOHq9nmAwiNlsZm5uDthL+Pu7mQrjlpIkEQgEWFoqfTazMIkimUyyvr6uXaArkUqlWF1dxe12Ew6HWVhY0MaM3uyq9fv9dHR0oNfrcTqdqKpaNp5yGhsbsVgs2riXz+creYzmXcd4VBn7L5hut1vrUnW5XNjtdmKxmHZRv3XrFjabTWsxqarK9vY28Xgcj8dDX1+fNk7pcrmYmprSEtxhDqvrSCRCQ0MDdXV17OzskEgkkGWZXC6nnV/lqKpKNBqlvb2dmpoalpeXD4wlFovR3d2NyWTi5s2bRKNRTCYTGxsbxGIxstkssixz48YNFhcXtXHdoxI/oE1gWl9f59WrV1qLWpKkonPgvffeY2ZmBkVRUBRFG8o4jvb2diRJ0s7Dra0tLem+evUKp9OpjS2f5BlrQTiNM33M48GDByc6iVOpLQK+QMmzkKc1NjZGbW0tNTU1XL9+nYcPHwJ7ydNutxOPx7UkWRiLLHSvqqrKxMQEXV1dhEIhVlZWWFlZwev10tbWVvZi73A4aGlpQafTaQ90j46OVhzv0NAQ4XAYr9eL1+tFURTm5uZKyshkMjQ3N2M2m8nlcoyMjBR14x7GbDbT2tqK0WhEVVUSiQTj4+Nlu/HeVYyVlBGNRmloaCAcDjM/P4/VakWWZYLBIGNjY7x48YKWlhZkWWZ+fp76+nrtpgj2xlBDoRB1dXX09PSgqirpdJqZmZmKYjusrhOJBE+ePOHq1as0NzfT3NxMLpfTxvEOE4lEtAlPh7Wys9ksjx49ore3F4/Hg8fjQVEUhoaG2NjYYHBwkHA4jN/vx+/3oyhKyWzqw7jdboLBIJIkkclkmJub0+LZfw709vaiqirz8/MnSpA7Ozv09PSg0+nY3t7m8ePH2rk4NzdHdXU1gUAAh8PB3bt3j12+IJyG1NTUVNmVsYzC76yd9vcgy71qruCnP/mEvl+84NnvflbyWfjn/82Tz7pOte2j6PV69Hq9NjGjMLP1oO5ESZKwWCxks9mSsaHjbNNsNpNOp4sSV1NTk9ZyGx4exmq1lixTKbPZjKIoRWOMFyXGSsswGo0oikI+n0eSpKLlPB4PiUSCfD6P2+1mYGAAVVW5fft20axdnU6n1ddxnzGspK7NZjM6na6iVulJGY1GDAYDmUym5BgdVE+VKBybg8YDC2UXZn0fx/Xr16mvr2d4eJiXL19qj6mUI8vyieqn4KyuU8Kfngsxi/WL25/zxe3PD/w8m1rBdqm9ZAwymzr/97Tm8/miL+ZRF7pCS+S02zxqkkKhq/CkTvuWobcR41Fl7E/u+5fT6/V88MEHqKrK7u6u1r06MzNTst+Kopw4xkrq+rzf5gR7x+GgG51K6ukgRx2b05T9ZjmHHUcxYUd4Vy5EgjzKwv1fcvlW6SzWhfufvsOo3r5kMsnk5OSxusretrOI8bRlKIrC4OAgTqcTh8PB7u4u8XhcPEt3gcRiMVKpVNFMY0G4aC5EF6sgCMJ5Edcp4aTE70EKgiAIQhln0sVauEMTBEEQhO8L0YIUBEEQhDJO1YIUffqCIAjC95VoQQqCIAhCGSJBCoIgCEIZIkEKgiAIQhn/BzRtxgeZ8G0VAAAAAElFTkSuQmCC;" vertex="1" parent="1">
          <mxGeometry x="-590" y="940" width="262.07" height="100" as="geometry" />
        </mxCell>
      </root>
    </mxGraphModel>
  </diagram>
</mxfile>
